<?xml version="1.0" encoding="UTF-8" standalone="no"?>
<!DOCTYPE svg PUBLIC "-//W3C//DTD SVG 1.1//EN"
 "http://www.w3.org/Graphics/SVG/1.1/DTD/svg11.dtd">
<!-- Generated by graphviz version 2.50.0 (0)
 -->
<!-- Pages: 1 -->
<svg width="189pt" height="620pt"
 viewBox="0.00 0.00 189.00 620.00" xmlns="http://www.w3.org/2000/svg" xmlns:xlink="http://www.w3.org/1999/xlink">
<g id="graph0" class="graph" transform="scale(1 1) rotate(0) translate(4 616)">
<polygon fill="white" stroke="transparent" points="-4,4 -4,-616 185,-616 185,4 -4,4"/>
<!-- 0 -->
<g id="node1" class="node">
<title>0</title>
<ellipse fill="none" stroke="black" cx="62" cy="-594" rx="27" ry="18"/>
<text text-anchor="middle" x="62" y="-590.3" font-family="Times,serif" font-size="14.00">0</text>
</g>
<!-- 2 -->
<g id="node2" class="node">
<title>2</title>
<ellipse fill="none" stroke="black" cx="62" cy="-522" rx="27" ry="18"/>
<text text-anchor="middle" x="62" y="-518.3" font-family="Times,serif" font-size="14.00">2</text>
</g>
<!-- 0&#45;&gt;2 -->
<g id="edge1" class="edge">
<title>0&#45;&gt;2</title>
<path fill="none" stroke="black" d="M62,-575.7C62,-567.98 62,-558.71 62,-550.11"/>
<polygon fill="black" stroke="black" points="65.5,-550.1 62,-540.1 58.5,-550.1 65.5,-550.1"/>
</g>
<!-- 3 -->
<g id="node3" class="node">
<title>3</title>
<ellipse fill="none" stroke="black" cx="62" cy="-450" rx="27" ry="18"/>
<text text-anchor="middle" x="62" y="-446.3" font-family="Times,serif" font-size="14.00">3</text>
</g>
<!-- 2&#45;&gt;3 -->
<g id="edge2" class="edge">
<title>2&#45;&gt;3</title>
<path fill="none" stroke="black" d="M62,-503.7C62,-495.98 62,-486.71 62,-478.11"/>
<polygon fill="black" stroke="black" points="65.5,-478.1 62,-468.1 58.5,-478.1 65.5,-478.1"/>
</g>
<!-- 5 -->
<g id="node4" class="node">
<title>5</title>
<ellipse fill="none" stroke="black" cx="27" cy="-306" rx="27" ry="18"/>
<text text-anchor="middle" x="27" y="-302.3" font-family="Times,serif" font-size="14.00">5</text>
</g>
<!-- 3&#45;&gt;5 -->
<g id="edge3" class="edge">
<title>3&#45;&gt;5</title>
<path fill="none" stroke="black" d="M57.85,-432.15C51.85,-407.81 40.7,-362.57 33.57,-333.67"/>
<polygon fill="black" stroke="black" points="36.94,-332.7 31.15,-323.82 30.14,-334.37 36.94,-332.7"/>
</g>
<!-- 6 -->
<g id="node6" class="node">
<title>6</title>
<ellipse fill="none" stroke="black" cx="94" cy="-378" rx="27" ry="18"/>
<text text-anchor="middle" x="94" y="-374.3" font-family="Times,serif" font-size="14.00">6</text>
</g>
<!-- 3&#45;&gt;6 -->
<g id="edge5" class="edge">
<title>3&#45;&gt;6</title>
<path fill="none" stroke="black" d="M69.58,-432.41C73.37,-424.13 78.03,-413.92 82.27,-404.66"/>
<polygon fill="black" stroke="black" points="85.5,-406.02 86.47,-395.47 79.13,-403.11 85.5,-406.02"/>
</g>
<!-- 4 -->
<g id="node5" class="node">
<title>4</title>
<ellipse fill="none" stroke="black" cx="54" cy="-90" rx="27" ry="18"/>
<text text-anchor="middle" x="54" y="-86.3" font-family="Times,serif" font-size="14.00">4</text>
</g>
<!-- 5&#45;&gt;4 -->
<g id="edge4" class="edge">
<title>5&#45;&gt;4</title>
<path fill="none" stroke="black" d="M28.87,-287.58C32.08,-258.03 38.99,-196.16 46,-144 47.13,-135.57 48.48,-126.4 49.74,-118.1"/>
<polygon fill="black" stroke="black" points="53.2,-118.58 51.27,-108.17 46.29,-117.52 53.2,-118.58"/>
</g>
<!-- 1 -->
<g id="node11" class="node">
<title>1</title>
<ellipse fill="none" stroke="black" cx="54" cy="-18" rx="27" ry="18"/>
<text text-anchor="middle" x="54" y="-14.3" font-family="Times,serif" font-size="14.00">1</text>
</g>
<!-- 4&#45;&gt;1 -->
<g id="edge12" class="edge">
<title>4&#45;&gt;1</title>
<path fill="none" stroke="black" d="M54,-71.7C54,-63.98 54,-54.71 54,-46.11"/>
<polygon fill="black" stroke="black" points="57.5,-46.1 54,-36.1 50.5,-46.1 57.5,-46.1"/>
</g>
<!-- 7 -->
<g id="node7" class="node">
<title>7</title>
<ellipse fill="none" stroke="black" cx="99" cy="-306" rx="27" ry="18"/>
<text text-anchor="middle" x="99" y="-302.3" font-family="Times,serif" font-size="14.00">7</text>
</g>
<!-- 6&#45;&gt;7 -->
<g id="edge6" class="edge">
<title>6&#45;&gt;7</title>
<path fill="none" stroke="black" d="M95.24,-359.7C95.79,-351.98 96.45,-342.71 97.06,-334.11"/>
<polygon fill="black" stroke="black" points="100.56,-334.33 97.78,-324.1 93.57,-333.83 100.56,-334.33"/>
</g>
<!-- 9 -->
<g id="node8" class="node">
<title>9</title>
<ellipse fill="none" stroke="black" cx="82" cy="-234" rx="27" ry="18"/>
<text text-anchor="middle" x="82" y="-230.3" font-family="Times,serif" font-size="14.00">9</text>
</g>
<!-- 7&#45;&gt;9 -->
<g id="edge7" class="edge">
<title>7&#45;&gt;9</title>
<path fill="none" stroke="black" d="M94.88,-288.05C92.99,-280.26 90.7,-270.82 88.58,-262.08"/>
<polygon fill="black" stroke="black" points="91.96,-261.17 86.2,-252.28 85.15,-262.82 91.96,-261.17"/>
</g>
<!-- 10 -->
<g id="node10" class="node">
<title>10</title>
<ellipse fill="none" stroke="black" cx="154" cy="-234" rx="27" ry="18"/>
<text text-anchor="middle" x="154" y="-230.3" font-family="Times,serif" font-size="14.00">10</text>
</g>
<!-- 7&#45;&gt;10 -->
<g id="edge9" class="edge">
<title>7&#45;&gt;10</title>
<path fill="none" stroke="black" d="M110.93,-289.81C118.21,-280.55 127.66,-268.52 135.85,-258.09"/>
<polygon fill="black" stroke="black" points="138.66,-260.18 142.09,-250.16 133.16,-255.86 138.66,-260.18"/>
</g>
<!-- 8 -->
<g id="node9" class="node">
<title>8</title>
<ellipse fill="none" stroke="black" cx="82" cy="-162" rx="27" ry="18"/>
<text text-anchor="middle" x="82" y="-158.3" font-family="Times,serif" font-size="14.00">8</text>
</g>
<!-- 9&#45;&gt;8 -->
<g id="edge8" class="edge">
<title>9&#45;&gt;8</title>
<path fill="none" stroke="black" d="M82,-215.7C82,-207.98 82,-198.71 82,-190.11"/>
<polygon fill="black" stroke="black" points="85.5,-190.1 82,-180.1 78.5,-190.1 85.5,-190.1"/>
</g>
<!-- 8&#45;&gt;4 -->
<g id="edge11" class="edge">
<title>8&#45;&gt;4</title>
<path fill="none" stroke="black" d="M75.36,-144.41C72.09,-136.22 68.06,-126.14 64.38,-116.95"/>
<polygon fill="black" stroke="black" points="67.55,-115.45 60.59,-107.47 61.05,-118.05 67.55,-115.45"/>
</g>
<!-- 10&#45;&gt;8 -->
<g id="edge10" class="edge">
<title>10&#45;&gt;8</title>
<path fill="none" stroke="black" d="M139.43,-218.83C129.25,-208.94 115.48,-195.55 103.97,-184.36"/>
<polygon fill="black" stroke="black" points="106.41,-181.85 96.8,-177.38 101.53,-186.87 106.41,-181.85"/>
</g>
</g>
</svg>
