<svg version="1.1" viewBox="0.0 0.0 600.0 371.0" fill="none" stroke="none" stroke-linecap="square" stroke-miterlimit="10" width="600" height="371" xmlns:xlink="http://www.w3.org/1999/xlink" xmlns="http://www.w3.org/2000/svg"><path fill="#ffffff" d="M0 0L600.0 0L600.0 371.0L0 371.0L0 0Z" fill-rule="nonzero"/><path stroke="#333333" stroke-width="1.0" stroke-linecap="butt" d="M42.5 334.5L581.5 334.5" fill-rule="nonzero"/><path stroke="#cccccc" stroke-width="1.0" stroke-linecap="butt" d="M42.5 283.5L581.5 283.5" fill-rule="nonzero"/><path stroke="#cccccc" stroke-width="1.0" stroke-linecap="butt" d="M42.5 233.5L581.5 233.5" fill-rule="nonzero"/><path stroke="#cccccc" stroke-width="1.0" stroke-linecap="butt" d="M42.5 182.5L581.5 182.5" fill-rule="nonzero"/><path stroke="#cccccc" stroke-width="1.0" stroke-linecap="butt" d="M42.5 131.5L581.5 131.5" fill-rule="nonzero"/><path stroke="#cccccc" stroke-width="1.0" stroke-linecap="butt" d="M42.5 81.5L581.5 81.5" fill-rule="nonzero"/><clipPath id="id_0"><path d="M42.55 81.28333L581.45 81.28333L581.45 334.45L42.55 334.45L42.55 81.28333Z" clip-rule="nonzero"/></clipPath><path stroke="#000000" stroke-width="2.0" stroke-linecap="butt" stroke-opacity="0.0" clip-path="url(#id_0)" d="M150.0 334.0L100.0 334.0L100.0 334.0L150.0 334.0Z" fill-rule="nonzero"/><path fill="#5b9bd5" clip-path="url(#id_0)" d="M150.0 334.0L100.0 334.0L100.0 334.0L150.0 334.0Z" fill-rule="nonzero"/><path stroke="#000000" stroke-width="2.0" stroke-linecap="butt" stroke-opacity="0.0" clip-path="url(#id_0)" d="M311.0 334.0L261.0 334.0L261.0 110.0C261.0 108.89543 261.89542 108.0 263.0 108.0L309.0 108.0C310.10458 108.0 311.0 108.89543 311.0 110.0Z" fill-rule="nonzero"/><path fill="#5b9bd5" clip-path="url(#id_0)" d="M311.0 334.0L261.0 334.0L261.0 110.0C261.0 108.89543 261.89542 108.0 263.0 108.0L309.0 108.0C310.10458 108.0 311.0 108.89543 311.0 110.0Z" fill-rule="nonzero"/><path stroke="#000000" stroke-width="2.0" stroke-linecap="butt" stroke-opacity="0.0" clip-path="url(#id_0)" d="M472.0 334.0L422.0 334.0L422.0 152.0C422.0 150.89543 422.89542 150.0 424.0 150.0L470.0 150.0C471.10458 150.0 472.0 150.89543 472.0 152.0Z" fill-rule="nonzero"/><path fill="#5b9bd5" clip-path="url(#id_0)" d="M472.0 334.0L422.0 334.0L422.0 152.0C422.0 150.89543 422.89542 150.0 424.0 150.0L470.0 150.0C471.10458 150.0 472.0 150.89543 472.0 152.0Z" fill-rule="nonzero"/><path stroke="#000000" stroke-width="2.0" stroke-linecap="butt" stroke-opacity="0.0" clip-path="url(#id_0)" d="M202.0 334.0L152.0 334.0L152.0 313.0C152.0 311.89542 152.89543 311.0 154.0 311.0L200.0 311.0C201.10457 311.0 202.0 311.89542 202.0 313.0Z" fill-rule="nonzero"/><path fill="#ed7d31" clip-path="url(#id_0)" d="M202.0 334.0L152.0 334.0L152.0 313.0C152.0 311.89542 152.89543 311.0 154.0 311.0L200.0 311.0C201.10457 311.0 202.0 311.89542 202.0 313.0Z" fill-rule="nonzero"/><path stroke="#000000" stroke-width="2.0" stroke-linecap="butt" stroke-opacity="0.0" clip-path="url(#id_0)" d="M363.0 334.0L313.0 334.0L313.0 110.0C313.0 108.89543 313.89542 108.0 315.0 108.0L361.0 108.0C362.10458 108.0 363.0 108.89543 363.0 110.0Z" fill-rule="nonzero"/><path fill="#ed7d31" clip-path="url(#id_0)" d="M363.0 334.0L313.0 334.0L313.0 110.0C313.0 108.89543 313.89542 108.0 315.0 108.0L361.0 108.0C362.10458 108.0 363.0 108.89543 363.0 110.0Z" fill-rule="nonzero"/><path stroke="#000000" stroke-width="2.0" stroke-linecap="butt" stroke-opacity="0.0" clip-path="url(#id_0)" d="M524.0 334.0L474.0 334.0L474.0 130.0C474.0 128.89543 474.89542 128.0 476.0 128.0L522.0 128.0C523.10455 128.0 524.0 128.89543 524.0 130.0Z" fill-rule="nonzero"/><path fill="#ed7d31" clip-path="url(#id_0)" d="M524.0 334.0L474.0 334.0L474.0 130.0C474.0 128.89543 474.89542 128.0 476.0 128.0L522.0 128.0C523.10455 128.0 524.0 128.89543 524.0 130.0Z" fill-rule="nonzero"/><path fill="#000000" d="M27.221874 333.6375Q27.221874 334.5125 27.08125 335.23126Q26.940624 335.95 26.6125 336.48126Q26.3 336.9969 25.784374 337.27814Q25.26875 337.5594 24.51875 337.5594Q23.8 337.5594 23.3 337.3094Q22.815624 337.04376 22.51875 336.5594Q22.221874 336.0594 22.096874 335.34064Q21.971874 334.60626 21.971874 333.66876Q21.971874 332.8094 22.1125 332.09064Q22.253124 331.35626 22.565624 330.84064Q22.89375 330.325 23.409374 330.04376Q23.925 329.7625 24.675 329.7625Q25.39375 329.7625 25.878124 330.0125Q26.3625 330.2625 26.659374 330.7625Q26.971874 331.2625 27.096874 331.98126Q27.221874 332.7 27.221874 333.6375ZM26.190624 333.71564Q26.190624 333.1375 26.14375 332.7Q26.096874 332.2469 26.01875 331.90314Q25.940624 331.54376 25.815624 331.29376Q25.690624 331.04376 25.51875 330.8875Q25.346874 330.73126 25.1125 330.65314Q24.89375 330.575 24.6125 330.575Q24.1125 330.575 23.8 330.8094Q23.4875 331.04376 23.3 331.46564Q23.128124 331.8719 23.065624 332.41876Q23.003124 332.96564 23.003124 333.60626Q23.003124 334.45 23.08125 335.04376Q23.175 335.6375 23.3625 336.0125Q23.565624 336.3875 23.8625 336.5594Q24.159374 336.73126 24.58125 336.73126Q24.909374 336.73126 25.14375 336.6375Q25.39375 336.52814 25.565624 336.34064Q25.753124 336.1375 25.8625 335.85626Q25.9875 335.575 26.05 335.2469Q26.128124 334.91876 26.159374 334.52814Q26.190624 334.1375 26.190624 333.71564ZM29.721874 336.60626Q29.721874 336.79376 29.70625 336.95Q29.690624 337.09064 29.64375 337.23126Q29.6125 337.3719 29.534374 337.4969Q29.471874 337.6375 29.378124 337.77814L28.565624 338.98126Q28.534374 339.02814 28.503124 339.0594Q28.471874 339.09064 28.409374 339.10626Q28.346874 339.1375 28.26875 339.1375Q28.20625 339.15314 28.096874 339.15314Q28.003124 339.15314 27.925 339.1375Q27.8625 339.1375 27.83125 339.10626Q27.8 339.09064 27.8 339.0594Q27.8 339.02814 27.815624 338.98126L28.596874 337.35626L28.596874 336.60626Q28.596874 336.45 28.628124 336.35626Q28.659374 336.2625 28.721874 336.21564Q28.8 336.16876 28.909374 336.15314Q29.01875 336.1375 29.175 336.1375Q29.315624 336.1375 29.409374 336.15314Q29.51875 336.16876 29.58125 336.21564Q29.659374 336.2625 29.690624 336.35626Q29.721874 336.45 29.721874 336.60626ZM36.221874 333.6375Q36.221874 334.5125 36.08125 335.23126Q35.940624 335.95 35.6125 336.48126Q35.3 336.9969 34.784374 337.27814Q34.26875 337.5594 33.51875 337.5594Q32.8 337.5594 32.3 337.3094Q31.815624 337.04376 31.51875 336.5594Q31.221874 336.0594 31.096874 335.34064Q30.971874 334.60626 30.971874 333.66876Q30.971874 332.8094 31.1125 332.09064Q31.253124 331.35626 31.565624 330.84064Q31.89375 330.325 32.409374 330.04376Q32.925 329.7625 33.675 329.7625Q34.39375 329.7625 34.878124 330.0125Q35.3625 330.2625 35.659374 330.7625Q35.971874 331.2625 36.096874 331.98126Q36.221874 332.7 36.221874 333.6375ZM35.190624 333.71564Q35.190624 333.1375 35.14375 332.7Q35.096874 332.2469 35.01875 331.90314Q34.940624 331.54376 34.815624 331.29376Q34.690624 331.04376 34.51875 330.8875Q34.346874 330.73126 34.1125 330.65314Q33.89375 330.575 33.6125 330.575Q33.1125 330.575 32.8 330.8094Q32.4875 331.04376 32.3 331.46564Q32.128124 331.8719 32.065624 332.41876Q32.003124 332.96564 32.003124 333.60626Q32.003124 334.45 32.08125 335.04376Q32.175 335.6375 32.3625 336.0125Q32.565624 336.3875 32.8625 336.5594Q33.159374 336.73126 33.58125 336.73126Q33.909374 336.73126 34.14375 336.6375Q34.39375 336.52814 34.565624 336.34064Q34.753124 336.1375 34.8625 335.85626Q34.9875 335.575 35.05 335.2469Q35.128124 334.91876 35.159374 334.52814Q35.190624 334.1375 35.190624 333.71564Z" fill-rule="nonzero"/><path fill="#000000" d="M27.221874 283.00418Q27.221874 283.87918 27.08125 284.59793Q26.940624 285.31668 26.6125 285.84793Q26.3 286.36356 25.784374 286.6448Q25.26875 286.92606 24.51875 286.92606Q23.8 286.92606 23.3 286.67606Q22.815624 286.41043 22.51875 285.92606Q22.221874 285.42606 22.096874 284.7073Q21.971874 283.97293 21.971874 283.03543Q21.971874 282.17606 22.1125 281.4573Q22.253124 280.72293 22.565624 280.2073Q22.89375 279.69168 23.409374 279.41043Q23.925 279.12918 24.675 279.12918Q25.39375 279.12918 25.878124 279.37918Q26.3625 279.62918 26.659374 280.12918Q26.971874 280.62918 27.096874 281.34793Q27.221874 282.06668 27.221874 283.00418ZM26.190624 283.0823Q26.190624 282.50418 26.14375 282.06668Q26.096874 281.61356 26.01875 281.2698Q25.940624 280.91043 25.815624 280.66043Q25.690624 280.41043 25.51875 280.25418Q25.346874 280.09793 25.1125 280.0198Q24.89375 279.94168 24.6125 279.94168Q24.1125 279.94168 23.8 280.17606Q23.4875 280.41043 23.3 280.8323Q23.128124 281.23856 23.065624 281.78543Q23.003124 282.3323 23.003124 282.97293Q23.003124 283.81668 23.08125 284.41043Q23.175 285.00418 23.3625 285.37918Q23.565624 285.75418 23.8625 285.92606Q24.159374 286.09793 24.58125 286.09793Q24.909374 286.09793 25.14375 286.00418Q25.39375 285.8948 25.565624 285.7073Q25.753124 285.50418 25.8625 285.22293Q25.9875 284.94168 26.05 284.61356Q26.128124 284.28543 26.159374 283.8948Q26.190624 283.50418 26.190624 283.0823ZM29.721874 285.97293Q29.721874 286.16043 29.70625 286.31668Q29.690624 286.4573 29.64375 286.59793Q29.6125 286.73856 29.534374 286.86356Q29.471874 287.00418 29.378124 287.1448L28.565624 288.34793Q28.534374 288.3948 28.503124 288.42606Q28.471874 288.4573 28.409374 288.47293Q28.346874 288.50418 28.26875 288.50418Q28.20625 288.5198 28.096874 288.5198Q28.003124 288.5198 27.925 288.50418Q27.8625 288.50418 27.83125 288.47293Q27.8 288.4573 27.8 288.42606Q27.8 288.3948 27.815624 288.34793L28.596874 286.72293L28.596874 285.97293Q28.596874 285.81668 28.628124 285.72293Q28.659374 285.62918 28.721874 285.5823Q28.8 285.53543 28.909374 285.5198Q29.01875 285.50418 29.175 285.50418Q29.315624 285.50418 29.409374 285.5198Q29.51875 285.53543 29.58125 285.5823Q29.659374 285.62918 29.690624 285.72293Q29.721874 285.81668 29.721874 285.97293ZM35.9875 286.41043Q35.9875 286.53543 35.95625 286.61356Q35.940624 286.67606 35.909374 286.72293Q35.89375 286.7698 35.846874 286.80106Q35.815624 286.81668 35.76875 286.81668L31.815624 286.81668Q31.76875 286.81668 31.7375 286.80106Q31.70625 286.7698 31.659374 286.72293Q31.628124 286.67606 31.6125 286.61356Q31.596874 286.53543 31.596874 286.41043Q31.596874 286.31668 31.6125 286.23856Q31.628124 286.16043 31.659374 286.11356Q31.690624 286.06668 31.721874 286.03543Q31.76875 286.00418 31.815624 286.00418L33.39375 286.00418L33.39375 280.23856L31.925 281.11356Q31.815624 281.17606 31.7375 281.19168Q31.675 281.19168 31.628124 281.16043Q31.596874 281.11356 31.58125 281.03543Q31.565624 280.94168 31.565624 280.81668Q31.565624 280.7073 31.565624 280.6448Q31.58125 280.56668 31.596874 280.5198Q31.628124 280.47293 31.659374 280.44168Q31.690624 280.41043 31.7375 280.36356L33.4875 279.25418Q33.503124 279.23856 33.534374 279.22293Q33.58125 279.2073 33.628124 279.2073Q33.690624 279.19168 33.753124 279.19168Q33.83125 279.17606 33.925 279.17606Q34.065624 279.17606 34.159374 279.19168Q34.253124 279.2073 34.3 279.22293Q34.3625 279.23856 34.378124 279.28543Q34.39375 279.31668 34.39375 279.34793L34.39375 286.00418L35.76875 286.00418Q35.815624 286.00418 35.846874 286.03543Q35.89375 286.06668 35.925 286.11356Q35.95625 286.16043 35.971874 286.23856Q35.9875 286.31668 35.9875 286.41043Z" fill-rule="nonzero"/><path fill="#000000" d="M27.221874 232.37083Q27.221874 233.24583 27.08125 233.96458Q26.940624 234.68333 26.6125 235.21458Q26.3 235.73021 25.784374 236.01146Q25.26875 236.29271 24.51875 236.29271Q23.8 236.29271 23.3 236.04271Q22.815624 235.77708 22.51875 235.29271Q22.221874 234.79271 22.096874 234.07396Q21.971874 233.33958 21.971874 232.40208Q21.971874 231.54271 22.1125 230.82396Q22.253124 230.08958 22.565624 229.57396Q22.89375 229.05833 23.409374 228.77708Q23.925 228.49583 24.675 228.49583Q25.39375 228.49583 25.878124 228.74583Q26.3625 228.99583 26.659374 229.49583Q26.971874 229.99583 27.096874 230.71458Q27.221874 231.43333 27.221874 232.37083ZM26.190624 232.44896Q26.190624 231.87083 26.14375 231.43333Q26.096874 230.98021 26.01875 230.63646Q25.940624 230.27708 25.815624 230.02708Q25.690624 229.77708 25.51875 229.62083Q25.346874 229.46458 25.1125 229.38646Q24.89375 229.30833 24.6125 229.30833Q24.1125 229.30833 23.8 229.54271Q23.4875 229.77708 23.3 230.19896Q23.128124 230.60521 23.065624 231.15208Q23.003124 231.69896 23.003124 232.33958Q23.003124 233.18333 23.08125 233.77708Q23.175 234.37083 23.3625 234.74583Q23.565624 235.12083 23.8625 235.29271Q24.159374 235.46458 24.58125 235.46458Q24.909374 235.46458 25.14375 235.37083Q25.39375 235.26146 25.565624 235.07396Q25.753124 234.87083 25.8625 234.58958Q25.9875 234.30833 26.05 233.98021Q26.128124 233.65208 26.159374 233.26146Q26.190624 232.87083 26.190624 232.44896ZM29.721874 235.33958Q29.721874 235.52708 29.70625 235.68333Q29.690624 235.82396 29.64375 235.96458Q29.6125 236.10521 29.534374 236.23021Q29.471874 236.37083 29.378124 236.51146L28.565624 237.71458Q28.534374 237.76146 28.503124 237.79271Q28.471874 237.82396 28.409374 237.83958Q28.346874 237.87083 28.26875 237.87083Q28.20625 237.88646 28.096874 237.88646Q28.003124 237.88646 27.925 237.87083Q27.8625 237.87083 27.83125 237.83958Q27.8 237.82396 27.8 237.79271Q27.8 237.76146 27.815624 237.71458L28.596874 236.08958L28.596874 235.33958Q28.596874 235.18333 28.628124 235.08958Q28.659374 234.99583 28.721874 234.94896Q28.8 234.90208 28.909374 234.88646Q29.01875 234.87083 29.175 234.87083Q29.315624 234.87083 29.409374 234.88646Q29.51875 234.90208 29.58125 234.94896Q29.659374 234.99583 29.690624 235.08958Q29.721874 235.18333 29.721874 235.33958ZM35.971874 235.74583Q35.971874 235.85521 35.95625 235.93333Q35.940624 236.01146 35.909374 236.07396Q35.878124 236.13646 35.83125 236.16771Q35.8 236.18333 35.7375 236.18333L31.55 236.18333Q31.471874 236.18333 31.409374 236.16771Q31.346874 236.13646 31.3 236.08958Q31.253124 236.04271 31.2375 235.96458Q31.221874 235.87083 31.221874 235.74583Q31.221874 235.62083 31.221874 235.54271Q31.2375 235.44896 31.26875 235.38646Q31.3 235.30833 31.33125 235.24583Q31.378124 235.18333 31.45625 235.10521L32.925 233.54271Q33.440624 233.01146 33.7375 232.58958Q34.05 232.15208 34.20625 231.80833Q34.378124 231.44896 34.425 231.16771Q34.4875 230.87083 34.4875 230.62083Q34.4875 230.37083 34.409374 230.15208Q34.33125 229.91771 34.175 229.74583Q34.01875 229.57396 33.784374 229.48021Q33.55 229.38646 33.2375 229.38646Q32.878124 229.38646 32.596874 229.48021Q32.315624 229.57396 32.096874 229.69896Q31.89375 229.80833 31.7375 229.91771Q31.596874 230.01146 31.534374 230.01146Q31.4875 230.01146 31.45625 229.99583Q31.425 229.96458 31.39375 229.91771Q31.378124 229.85521 31.3625 229.77708Q31.3625 229.68333 31.3625 229.55833Q31.3625 229.48021 31.3625 229.41771Q31.378124 229.33958 31.378124 229.29271Q31.39375 229.24583 31.409374 229.21458Q31.440624 229.16771 31.503124 229.10521Q31.58125 229.04271 31.753124 228.94896Q31.940624 228.83958 32.190624 228.74583Q32.45625 228.63646 32.76875 228.57396Q33.08125 228.49583 33.425 228.49583Q33.971874 228.49583 34.378124 228.65208Q34.8 228.79271 35.065624 229.07396Q35.346874 229.33958 35.471874 229.69896Q35.6125 230.05833 35.6125 230.46458Q35.6125 230.82396 35.55 231.18333Q35.4875 231.54271 35.284374 231.96458Q35.08125 232.38646 34.675 232.90208Q34.284374 233.40208 33.64375 234.07396L32.440624 235.32396L35.7375 235.32396Q35.784374 235.32396 35.83125 235.35521Q35.878124 235.38646 35.909374 235.43333Q35.940624 235.48021 35.95625 235.55833Q35.971874 235.63646 35.971874 235.74583Z" fill-rule="nonzero"/><path fill="#000000" d="M27.221874 181.7375Q27.221874 182.6125 27.08125 183.33125Q26.940624 184.05 26.6125 184.58125Q26.3 185.09688 25.784374 185.37813Q25.26875 185.65938 24.51875 185.65938Q23.8 185.65938 23.3 185.40938Q22.815624 185.14375 22.51875 184.65938Q22.221874 184.15938 22.096874 183.44063Q21.971874 182.70625 21.971874 181.76875Q21.971874 180.90938 22.1125 180.19063Q22.253124 179.45625 22.565624 178.94063Q22.89375 178.425 23.409374 178.14375Q23.925 177.8625 24.675 177.8625Q25.39375 177.8625 25.878124 178.1125Q26.3625 178.3625 26.659374 178.8625Q26.971874 179.3625 27.096874 180.08125Q27.221874 180.8 27.221874 181.7375ZM26.190624 181.81563Q26.190624 181.2375 26.14375 180.8Q26.096874 180.34688 26.01875 180.00313Q25.940624 179.64375 25.815624 179.39375Q25.690624 179.14375 25.51875 178.9875Q25.346874 178.83125 25.1125 178.75313Q24.89375 178.675 24.6125 178.675Q24.1125 178.675 23.8 178.90938Q23.4875 179.14375 23.3 179.56563Q23.128124 179.97188 23.065624 180.51875Q23.003124 181.06563 23.003124 181.70625Q23.003124 182.55 23.08125 183.14375Q23.175 183.7375 23.3625 184.1125Q23.565624 184.4875 23.8625 184.65938Q24.159374 184.83125 24.58125 184.83125Q24.909374 184.83125 25.14375 184.7375Q25.39375 184.62813 25.565624 184.44063Q25.753124 184.2375 25.8625 183.95625Q25.9875 183.675 26.05 183.34688Q26.128124 183.01875 26.159374 182.62813Q26.190624 182.2375 26.190624 181.81563ZM29.721874 184.70625Q29.721874 184.89375 29.70625 185.05Q29.690624 185.19063 29.64375 185.33125Q29.6125 185.47188 29.534374 185.59688Q29.471874 185.7375 29.378124 185.87813L28.565624 187.08125Q28.534374 187.12813 28.503124 187.15938Q28.471874 187.19063 28.409374 187.20625Q28.346874 187.2375 28.26875 187.2375Q28.20625 187.25313 28.096874 187.25313Q28.003124 187.25313 27.925 187.2375Q27.8625 187.2375 27.83125 187.20625Q27.8 187.19063 27.8 187.15938Q27.8 187.12813 27.815624 187.08125L28.596874 185.45625L28.596874 184.70625Q28.596874 184.55 28.628124 184.45625Q28.659374 184.3625 28.721874 184.31563Q28.8 184.26875 28.909374 184.25313Q29.01875 184.2375 29.175 184.2375Q29.315624 184.2375 29.409374 184.25313Q29.51875 184.26875 29.58125 184.31563Q29.659374 184.3625 29.690624 184.45625Q29.721874 184.55 29.721874 184.70625ZM35.909374 183.37813Q35.909374 183.90938 35.721874 184.33125Q35.55 184.7375 35.20625 185.03438Q34.8625 185.33125 34.3625 185.50313Q33.8625 185.65938 33.2375 185.65938Q32.8625 185.65938 32.51875 185.59688Q32.190624 185.53438 31.925 185.45625Q31.675 185.3625 31.503124 185.28438Q31.346874 185.19063 31.3 185.14375Q31.253124 185.09688 31.221874 185.06563Q31.20625 185.01875 31.190624 184.97188Q31.175 184.90938 31.159374 184.83125Q31.159374 184.7375 31.159374 184.6125Q31.159374 184.39375 31.190624 184.31563Q31.2375 184.2375 31.315624 184.2375Q31.3625 184.2375 31.51875 184.33125Q31.675 184.425 31.909374 184.53438Q32.159374 184.64375 32.4875 184.7375Q32.815624 184.83125 33.20625 184.83125Q33.596874 184.83125 33.89375 184.7375Q34.190624 184.62813 34.378124 184.45625Q34.58125 184.26875 34.675 184.01875Q34.784374 183.76875 34.784374 183.47188Q34.784374 183.15938 34.659374 182.90938Q34.534374 182.64375 34.284374 182.45625Q34.05 182.26875 33.690624 182.175Q33.33125 182.06563 32.878124 182.06563L32.159374 182.06563Q32.1125 182.06563 32.065624 182.05Q32.034374 182.01875 31.9875 181.97188Q31.95625 181.925 31.940624 181.84688Q31.925 181.76875 31.925 181.65938Q31.925 181.53438 31.940624 181.47188Q31.95625 181.39375 31.9875 181.34688Q32.01875 181.3 32.05 181.28438Q32.096874 181.26875 32.159374 181.26875L32.815624 181.26875Q33.20625 181.26875 33.503124 181.175Q33.815624 181.06563 34.034374 180.87813Q34.253124 180.69063 34.3625 180.44063Q34.471874 180.175 34.471874 179.84688Q34.471874 179.6125 34.39375 179.40938Q34.33125 179.19063 34.175 179.03438Q34.01875 178.8625 33.784374 178.78438Q33.55 178.69063 33.2375 178.69063Q32.89375 178.69063 32.6125 178.8Q32.33125 178.89375 32.096874 179.01875Q31.878124 179.12813 31.721874 179.2375Q31.58125 179.33125 31.534374 179.33125Q31.4875 179.33125 31.45625 179.31563Q31.425 179.3 31.39375 179.26875Q31.378124 179.22188 31.3625 179.14375Q31.3625 179.05 31.3625 178.925Q31.3625 178.84688 31.3625 178.78438Q31.378124 178.70625 31.39375 178.65938Q31.409374 178.6125 31.425 178.56563Q31.45625 178.51875 31.503124 178.47188Q31.565624 178.40938 31.7375 178.31563Q31.909374 178.20625 32.159374 178.1125Q32.409374 178.00313 32.7375 177.94063Q33.065624 177.8625 33.440624 177.8625Q33.95625 177.8625 34.346874 178.00313Q34.753124 178.12813 35.01875 178.37813Q35.284374 178.6125 35.409374 178.95625Q35.55 179.3 35.55 179.72188Q35.55 180.08125 35.45625 180.39375Q35.3625 180.69063 35.175 180.925Q35.003124 181.15938 34.7375 181.33125Q34.471874 181.50313 34.128124 181.56563L34.128124 181.58125Q34.51875 181.6125 34.846874 181.76875Q35.175 181.925 35.409374 182.15938Q35.64375 182.39375 35.76875 182.70625Q35.909374 183.01875 35.909374 183.37813Z" fill-rule="nonzero"/><path fill="#000000" d="M27.221874 131.10417Q27.221874 131.97917 27.08125 132.69792Q26.940624 133.41667 26.6125 133.94792Q26.3 134.46355 25.784374 134.7448Q25.26875 135.02605 24.51875 135.02605Q23.8 135.02605 23.3 134.77605Q22.815624 134.51042 22.51875 134.02605Q22.221874 133.52605 22.096874 132.8073Q21.971874 132.07292 21.971874 131.13542Q21.971874 130.27605 22.1125 129.5573Q22.253124 128.82292 22.565624 128.3073Q22.89375 127.79167 23.409374 127.51042Q23.925 127.22917 24.675 127.22917Q25.39375 127.22917 25.878124 127.47917Q26.3625 127.72917 26.659374 128.22917Q26.971874 128.72917 27.096874 129.44792Q27.221874 130.16667 27.221874 131.10417ZM26.190624 131.1823Q26.190624 130.60417 26.14375 130.16667Q26.096874 129.71355 26.01875 129.3698Q25.940624 129.01042 25.815624 128.76042Q25.690624 128.51042 25.51875 128.35417Q25.346874 128.19792 25.1125 128.1198Q24.89375 128.04167 24.6125 128.04167Q24.1125 128.04167 23.8 128.27605Q23.4875 128.51042 23.3 128.9323Q23.128124 129.33855 23.065624 129.88542Q23.003124 130.4323 23.003124 131.07292Q23.003124 131.91667 23.08125 132.51042Q23.175 133.10417 23.3625 133.47917Q23.565624 133.85417 23.8625 134.02605Q24.159374 134.19792 24.58125 134.19792Q24.909374 134.19792 25.14375 134.10417Q25.39375 133.9948 25.565624 133.8073Q25.753124 133.60417 25.8625 133.32292Q25.9875 133.04167 26.05 132.71355Q26.128124 132.38542 26.159374 131.9948Q26.190624 131.60417 26.190624 131.1823ZM29.721874 134.07292Q29.721874 134.26042 29.70625 134.41667Q29.690624 134.5573 29.64375 134.69792Q29.6125 134.83855 29.534374 134.96355Q29.471874 135.10417 29.378124 135.2448L28.565624 136.44792Q28.534374 136.4948 28.503124 136.52605Q28.471874 136.5573 28.409374 136.57292Q28.346874 136.60417 28.26875 136.60417Q28.20625 136.6198 28.096874 136.6198Q28.003124 136.6198 27.925 136.60417Q27.8625 136.60417 27.83125 136.57292Q27.8 136.5573 27.8 136.52605Q27.8 136.4948 27.815624 136.44792L28.596874 134.82292L28.596874 134.07292Q28.596874 133.91667 28.628124 133.82292Q28.659374 133.72917 28.721874 133.6823Q28.8 133.63542 28.909374 133.6198Q29.01875 133.60417 29.175 133.60417Q29.315624 133.60417 29.409374 133.6198Q29.51875 133.63542 29.58125 133.6823Q29.659374 133.72917 29.690624 133.82292Q29.721874 133.91667 29.721874 134.07292ZM36.284374 132.76042Q36.284374 132.94792 36.221874 133.07292Q36.175 133.1823 36.065624 133.1823L35.20625 133.1823L35.20625 134.77605Q35.20625 134.82292 35.175 134.85417Q35.159374 134.88542 35.096874 134.91667Q35.05 134.9323 34.95625 134.9323Q34.8625 134.94792 34.70625 134.94792Q34.565624 134.94792 34.471874 134.9323Q34.378124 134.9323 34.315624 134.91667Q34.26875 134.88542 34.253124 134.85417Q34.2375 134.82292 34.2375 134.77605L34.2375 133.1823L31.096874 133.1823Q31.034374 133.1823 30.9875 133.16667Q30.940624 133.13542 30.89375 133.08855Q30.8625 133.04167 30.846874 132.96355Q30.83125 132.8698 30.83125 132.72917Q30.83125 132.6198 30.83125 132.54167Q30.846874 132.44792 30.8625 132.3698Q30.878124 132.29167 30.909374 132.22917Q30.940624 132.16667 30.971874 132.08855L33.70625 127.47917Q33.7375 127.4323 33.784374 127.40105Q33.846874 127.3698 33.925 127.35417Q34.01875 127.32292 34.14375 127.3073Q34.284374 127.29167 34.45625 127.29167Q34.659374 127.29167 34.8 127.3073Q34.940624 127.32292 35.01875 127.35417Q35.1125 127.3698 35.159374 127.41667Q35.20625 127.44792 35.20625 127.51042L35.20625 132.33855L36.065624 132.33855Q36.159374 132.33855 36.221874 132.44792Q36.284374 132.54167 36.284374 132.76042ZM34.2375 128.1823L34.221874 128.1823L31.753124 132.33855L34.2375 132.33855L34.2375 128.1823Z" fill-rule="nonzero"/><path fill="#000000" d="M27.221874 80.47083Q27.221874 81.34583 27.08125 82.06458Q26.940624 82.78333 26.6125 83.31458Q26.3 83.83021 25.784374 84.11146Q25.26875 84.39271 24.51875 84.39271Q23.8 84.39271 23.3 84.14271Q22.815624 83.87708 22.51875 83.39271Q22.221874 82.89271 22.096874 82.17396Q21.971874 81.43958 21.971874 80.50208Q21.971874 79.64271 22.1125 78.92396Q22.253124 78.18958 22.565624 77.67396Q22.89375 77.15833 23.409374 76.87708Q23.925 76.59583 24.675 76.59583Q25.39375 76.59583 25.878124 76.84583Q26.3625 77.09583 26.659374 77.59583Q26.971874 78.09583 27.096874 78.81458Q27.221874 79.53333 27.221874 80.47083ZM26.190624 80.54896Q26.190624 79.97083 26.14375 79.53333Q26.096874 79.08021 26.01875 78.73646Q25.940624 78.37708 25.815624 78.12708Q25.690624 77.87708 25.51875 77.72083Q25.346874 77.56458 25.1125 77.48646Q24.89375 77.40833 24.6125 77.40833Q24.1125 77.40833 23.8 77.64271Q23.4875 77.87708 23.3 78.29896Q23.128124 78.70521 23.065624 79.25208Q23.003124 79.79896 23.003124 80.43958Q23.003124 81.28333 23.08125 81.87708Q23.175 82.47083 23.3625 82.84583Q23.565624 83.22083 23.8625 83.39271Q24.159374 83.56458 24.58125 83.56458Q24.909374 83.56458 25.14375 83.47083Q25.39375 83.36146 25.565624 83.17396Q25.753124 82.97083 25.8625 82.68958Q25.9875 82.40833 26.05 82.08021Q26.128124 81.75208 26.159374 81.36146Q26.190624 80.97083 26.190624 80.54896ZM29.721874 83.43958Q29.721874 83.62708 29.70625 83.78333Q29.690624 83.92396 29.64375 84.06458Q29.6125 84.20521 29.534374 84.33021Q29.471874 84.47083 29.378124 84.61146L28.565624 85.81458Q28.534374 85.86146 28.503124 85.89271Q28.471874 85.92396 28.409374 85.93958Q28.346874 85.97083 28.26875 85.97083Q28.20625 85.98646 28.096874 85.98646Q28.003124 85.98646 27.925 85.97083Q27.8625 85.97083 27.83125 85.93958Q27.8 85.92396 27.8 85.89271Q27.8 85.86146 27.815624 85.81458L28.596874 84.18958L28.596874 83.43958Q28.596874 83.28333 28.628124 83.18958Q28.659374 83.09583 28.721874 83.04896Q28.8 83.00208 28.909374 82.98646Q29.01875 82.97083 29.175 82.97083Q29.315624 82.97083 29.409374 82.98646Q29.51875 83.00208 29.58125 83.04896Q29.659374 83.09583 29.690624 83.18958Q29.721874 83.28333 29.721874 83.43958ZM35.925 81.84583Q35.925 82.45521 35.721874 82.93958Q35.51875 83.40833 35.14375 83.73646Q34.76875 84.04896 34.253124 84.22083Q33.7375 84.39271 33.096874 84.39271Q32.753124 84.39271 32.425 84.34583Q32.1125 84.29896 31.8625 84.22083Q31.628124 84.14271 31.45625 84.08021Q31.3 84.00208 31.253124 83.97083Q31.221874 83.92396 31.20625 83.89271Q31.190624 83.86146 31.175 83.81458Q31.159374 83.75208 31.14375 83.67396Q31.14375 83.59583 31.14375 83.50208Q31.14375 83.39271 31.14375 83.31458Q31.159374 83.23646 31.175 83.18958Q31.20625 83.14271 31.2375 83.12708Q31.26875 83.09583 31.315624 83.09583Q31.378124 83.09583 31.4875 83.17396Q31.6125 83.23646 31.815624 83.33021Q32.034374 83.40833 32.33125 83.48646Q32.64375 83.56458 33.065624 83.56458Q33.45625 83.56458 33.784374 83.47083Q34.1125 83.37708 34.346874 83.17396Q34.596874 82.97083 34.721874 82.67396Q34.8625 82.37708 34.8625 81.93958Q34.8625 81.58021 34.7375 81.29896Q34.628124 81.01771 34.39375 80.83021Q34.159374 80.64271 33.8 80.56458Q33.440624 80.47083 32.925 80.47083Q32.565624 80.47083 32.3 80.50208Q32.05 80.53333 31.83125 80.53333Q31.675 80.53333 31.596874 80.47083Q31.534374 80.39271 31.534374 80.17396L31.534374 77.08021Q31.534374 76.89271 31.6125 76.79896Q31.70625 76.70521 31.878124 76.70521L35.2375 76.70521Q35.284374 76.70521 35.33125 76.73646Q35.378124 76.75208 35.39375 76.81458Q35.425 76.86146 35.440624 76.93958Q35.45625 77.01771 35.45625 77.12708Q35.45625 77.34583 35.39375 77.47083Q35.346874 77.58021 35.2375 77.58021L32.409374 77.58021L32.409374 79.70521Q32.6125 79.67396 32.815624 79.67396Q33.034374 79.65833 33.315624 79.65833Q33.971874 79.65833 34.45625 79.81458Q34.940624 79.97083 35.26875 80.26771Q35.596874 80.54896 35.753124 80.95521Q35.925 81.34583 35.925 81.84583Z" fill-rule="nonzero"/><path fill="#000000" d="M125.837456 347.8719Q125.837456 348.27814 125.681206 348.59064Q125.54058 348.90314 125.25933 349.1219Q124.993706 349.34064 124.60308 349.45Q124.22808 349.5594 123.774956 349.5594Q123.493706 349.5594 123.22808 349.5125Q122.97808 349.48126 122.774956 349.41876Q122.57183 349.34064 122.431206 349.2625Q122.29058 349.1844 122.22808 349.1375Q122.16558 349.075 122.13433 348.96564Q122.10308 348.85626 122.10308 348.6844Q122.10308 348.575 122.118706 348.4969Q122.13433 348.41876 122.149956 348.3719Q122.16558 348.325 122.19683 348.3094Q122.22808 348.27814 122.274956 348.27814Q122.337456 348.27814 122.462456 348.35626Q122.587456 348.4344 122.774956 348.52814Q122.962456 348.6219 123.212456 348.71564Q123.462456 348.79376 123.79058 348.79376Q124.04058 348.79376 124.22808 348.7469Q124.431206 348.6844 124.57183 348.59064Q124.72808 348.48126 124.806206 348.325Q124.88433 348.15314 124.88433 347.95Q124.88433 347.71564 124.774956 347.575Q124.66558 347.41876 124.47808 347.3094Q124.29058 347.1844 124.056206 347.09064Q123.82183 346.9969 123.57183 346.90314Q123.32183 346.79376 123.07183 346.66876Q122.837456 346.54376 122.649956 346.3719Q122.462456 346.1844 122.35308 345.9344Q122.243706 345.6844 122.243706 345.325Q122.243706 345.0125 122.35308 344.73126Q122.47808 344.45 122.712456 344.2469Q122.962456 344.02814 123.32183 343.90314Q123.681206 343.7625 124.16558 343.7625Q124.368706 343.7625 124.57183 343.8094Q124.79058 343.84064 124.962456 343.8875Q125.13433 343.9344 125.243706 343.9969Q125.368706 344.0594 125.431206 344.10626Q125.493706 344.15314 125.50933 344.2Q125.54058 344.23126 125.54058 344.27814Q125.556206 344.3094 125.556206 344.3875Q125.57183 344.45 125.57183 344.54376Q125.57183 344.6375 125.556206 344.71564Q125.556206 344.77814 125.524956 344.825Q125.50933 344.8719 125.47808 344.90314Q125.462456 344.91876 125.41558 344.91876Q125.368706 344.91876 125.25933 344.85626Q125.16558 344.79376 125.00933 344.71564Q124.85308 344.6375 124.63433 344.575Q124.431206 344.5125 124.149956 344.5125Q123.899956 344.5125 123.712456 344.575Q123.524956 344.6219 123.399956 344.73126Q123.29058 344.825 123.22808 344.96564Q123.16558 345.10626 123.16558 345.27814Q123.16558 345.5125 123.274956 345.66876Q123.399956 345.8094 123.587456 345.9344Q123.774956 346.04376 124.00933 346.1375Q124.25933 346.23126 124.50933 346.34064Q124.75933 346.4344 124.993706 346.5594Q125.243706 346.6844 125.431206 346.85626Q125.618706 347.02814 125.72808 347.27814Q125.837456 347.52814 125.837456 347.8719ZM130.93121 349.45L130.22809 351.3875Q130.19684 351.48126 130.05621 351.52814Q129.91559 351.59064 129.61871 351.59064Q129.46246 351.59064 129.36871 351.575Q129.27496 351.5594 129.22809 351.5125Q129.18121 351.48126 129.16559 351.41876Q129.16559 351.3719 129.19684 351.27814L129.93121 349.45Q129.86871 349.41876 129.82184 349.3719Q129.77496 349.325 129.75934 349.2625L127.88433 344.21564Q127.837456 344.10626 127.837456 344.04376Q127.837456 343.96564 127.88433 343.91876Q127.931206 343.8719 128.02496 343.85626Q128.13434 343.84064 128.32184 343.84064Q128.49371 343.84064 128.58746 343.85626Q128.69684 343.8719 128.74371 343.90314Q128.80621 343.91876 128.82184 343.96564Q128.85309 343.9969 128.88434 344.075L130.39996 348.3094L130.41559 348.3094L131.86871 344.0594Q131.89996 343.9344 131.94684 343.90314Q131.99371 343.8719 132.08746 343.85626Q132.19684 343.84064 132.38434 343.84064Q132.55621 343.84064 132.64996 343.85626Q132.75934 343.8719 132.80621 343.91876Q132.86871 343.96564 132.86871 344.04376Q132.86871 344.10626 132.82184 344.2L130.93121 349.45ZM136.61871 344.3719Q136.61871 344.4969 136.60309 344.59064Q136.60309 344.6844 136.58746 344.73126Q136.57184 344.77814 136.54059 344.8094Q136.50934 344.825 136.46246 344.825Q136.41559 344.825 136.35309 344.8094Q136.29059 344.77814 136.19684 344.7625Q136.11871 344.73126 136.00934 344.71564Q135.89996 344.6844 135.77496 344.6844Q135.63434 344.6844 135.49371 344.7469Q135.35309 344.79376 135.19684 344.9344Q135.04059 345.0594 134.86871 345.29376Q134.69684 345.5125 134.49371 345.84064L134.49371 349.3094Q134.49371 349.35626 134.46246 349.3875Q134.44684 349.41876 134.39996 349.45Q134.35309 349.46564 134.25934 349.46564Q134.16559 349.48126 134.00934 349.48126Q133.86871 349.48126 133.77496 349.46564Q133.68121 349.46564 133.61871 349.45Q133.57184 349.41876 133.54059 349.3875Q133.52496 349.35626 133.52496 349.3094L133.52496 344.02814Q133.52496 343.98126 133.54059 343.95Q133.57184 343.91876 133.61871 343.90314Q133.66559 343.8719 133.74371 343.85626Q133.83746 343.84064 133.97809 343.84064Q134.10309 343.84064 134.18121 343.85626Q134.27496 343.8719 134.32184 343.90314Q134.36871 343.91876 134.38434 343.95Q134.39996 343.98126 134.39996 344.02814L134.39996 344.79376Q134.61871 344.48126 134.80621 344.27814Q135.00934 344.075 135.16559 343.96564Q135.33746 343.85626 135.50934 343.8094Q135.68121 343.7625 135.85309 343.7625Q135.91559 343.7625 136.00934 343.77814Q136.11871 343.77814 136.21246 343.8094Q136.32184 343.825 136.39996 343.85626Q136.49371 343.8875 136.52496 343.91876Q136.57184 343.95 136.57184 343.98126Q136.58746 343.9969 136.58746 344.04376Q136.60309 344.075 136.60309 344.16876Q136.61871 344.2469 136.61871 344.3719ZM141.50934 349.3094Q141.50934 349.3719 141.46246 349.41876Q141.41559 349.45 141.32184 349.46564Q141.24371 349.48126 141.08746 349.48126Q140.93121 349.48126 140.83746 349.46564Q140.75934 349.45 140.71246 349.41876Q140.66559 349.3719 140.66559 349.3094L140.66559 348.77814Q140.32184 349.15314 139.89996 349.35626Q139.47809 349.5594 139.00934 349.5594Q138.58746 349.5594 138.24371 349.45Q137.91559 349.34064 137.66559 349.1375Q137.43121 348.9344 137.30621 348.6375Q137.18121 348.34064 137.18121 347.95Q137.18121 347.5125 137.35309 347.1844Q137.54059 346.85626 137.86871 346.6375Q138.21246 346.41876 138.69684 346.3094Q139.19684 346.2 139.82184 346.2L140.54059 346.2L140.54059 345.79376Q140.54059 345.48126 140.47809 345.2469Q140.41559 345.0125 140.27496 344.8719Q140.13434 344.71564 139.89996 344.6375Q139.66559 344.54376 139.33746 344.54376Q138.97809 344.54376 138.69684 344.6375Q138.41559 344.71564 138.19684 344.825Q137.97809 344.91876 137.83746 345.0125Q137.69684 345.09064 137.61871 345.09064Q137.57184 345.09064 137.54059 345.075Q137.50934 345.04376 137.47809 344.9969Q137.46246 344.95 137.44684 344.8875Q137.43121 344.8094 137.43121 344.71564Q137.43121 344.575 137.44684 344.4969Q137.47809 344.40314 137.55621 344.325Q137.63434 344.2469 137.82184 344.15314Q138.02496 344.04376 138.27496 343.96564Q138.52496 343.8719 138.82184 343.825Q139.11871 343.7625 139.43121 343.7625Q139.99371 343.7625 140.38434 343.90314Q140.79059 344.02814 141.02496 344.27814Q141.27496 344.52814 141.38434 344.90314Q141.50934 345.2625 141.50934 345.7469L141.50934 349.3094ZM140.54059 346.90314L139.71246 346.90314Q139.32184 346.90314 139.02496 346.96564Q138.72809 347.02814 138.54059 347.16876Q138.35309 347.29376 138.25934 347.48126Q138.16559 347.66876 138.16559 347.90314Q138.16559 348.325 138.41559 348.575Q138.68121 348.8094 139.14996 348.8094Q139.54059 348.8094 139.85309 348.6219Q140.18121 348.41876 140.54059 348.0125L140.54059 346.90314ZM148.32184 348.4969Q148.32184 348.60626 148.30621 348.6844Q148.30621 348.7469 148.29059 348.79376Q148.27496 348.84064 148.25934 348.8875Q148.24371 348.91876 148.16559 348.9969Q148.08746 349.075 147.91559 349.1844Q147.74371 349.27814 147.52496 349.3719Q147.30621 349.45 147.04059 349.4969Q146.79059 349.5594 146.50934 349.5594Q145.94684 349.5594 145.50934 349.3719Q145.07184 349.1844 144.77496 348.825Q144.47809 348.46564 144.32184 347.95Q144.16559 347.41876 144.16559 346.73126Q144.16559 345.95 144.35309 345.3875Q144.54059 344.825 144.86871 344.48126Q145.21246 344.1219 145.64996 343.95Q146.10309 343.77814 146.61871 343.77814Q146.86871 343.77814 147.10309 343.825Q147.35309 343.8719 147.54059 343.95Q147.74371 344.0125 147.89996 344.1219Q148.05621 344.21564 148.11871 344.29376Q148.19684 344.35626 148.22809 344.40314Q148.25934 344.4344 148.27496 344.4969Q148.29059 344.54376 148.29059 344.6219Q148.30621 344.6844 148.30621 344.79376Q148.30621 345.02814 148.24371 345.1219Q148.19684 345.2 148.11871 345.2Q148.02496 345.2 147.91559 345.10626Q147.80621 345.0125 147.61871 344.90314Q147.44684 344.77814 147.19684 344.6844Q146.94684 344.59064 146.61871 344.59064Q145.91559 344.59064 145.54059 345.1219Q145.16559 345.65314 145.16559 346.6844Q145.16559 347.1844 145.25934 347.575Q145.36871 347.95 145.55621 348.21564Q145.74371 348.46564 146.00934 348.59064Q146.29059 348.71564 146.63434 348.71564Q146.96246 348.71564 147.21246 348.6219Q147.47809 348.5125 147.64996 348.3875Q147.83746 348.2625 147.96246 348.16876Q148.08746 348.0594 148.16559 348.0594Q148.21246 348.0594 148.22809 348.09064Q148.25934 348.10626 148.27496 348.16876Q148.30621 348.21564 148.30621 348.3094Q148.32184 348.3875 148.32184 348.4969ZM154.05621 349.3094Q154.05621 349.35626 154.02496 349.3875Q154.00934 349.41876 153.94684 349.45Q153.89996 349.46564 153.80621 349.46564Q153.72809 349.48126 153.60309 349.48126Q153.47809 349.48126 153.38434 349.46564Q153.30621 349.46564 153.25934 349.45Q153.21246 349.41876 153.18121 349.3875Q153.16559 349.35626 153.16559 349.3094L153.16559 348.60626Q152.71246 349.10626 152.27496 349.34064Q151.83746 349.5594 151.38434 349.5594Q150.86871 349.5594 150.49371 349.3875Q150.13434 349.21564 149.91559 348.91876Q149.69684 348.60626 149.60309 348.21564Q149.50934 347.8094 149.50934 347.23126L149.50934 344.02814Q149.50934 343.98126 149.52496 343.95Q149.54059 343.91876 149.60309 343.90314Q149.66559 343.8719 149.75934 343.85626Q149.85309 343.84064 149.99371 343.84064Q150.13434 343.84064 150.22809 343.85626Q150.32184 343.8719 150.36871 343.90314Q150.43121 343.91876 150.44684 343.95Q150.47809 343.98126 150.47809 344.02814L150.47809 347.10626Q150.47809 347.5594 150.54059 347.84064Q150.60309 348.1219 150.74371 348.325Q150.88434 348.5125 151.08746 348.6219Q151.30621 348.73126 151.58746 348.73126Q151.94684 348.73126 152.30621 348.48126Q152.66559 348.21564 153.07184 347.71564L153.07184 344.02814Q153.07184 343.98126 153.08746 343.95Q153.11871 343.91876 153.16559 343.90314Q153.22809 343.8719 153.32184 343.85626Q153.41559 343.84064 153.55621 343.84064Q153.69684 343.84064 153.79059 343.85626Q153.88434 343.8719 153.93121 343.90314Q153.99371 343.91876 154.02496 343.95Q154.05621 343.98126 154.05621 344.02814L154.05621 349.3094ZM159.83746 347.8719Q159.83746 348.27814 159.68121 348.59064Q159.54059 348.90314 159.25934 349.1219Q158.99371 349.34064 158.60309 349.45Q158.22809 349.5594 157.77496 349.5594Q157.49371 349.5594 157.22809 349.5125Q156.97809 349.48126 156.77496 349.41876Q156.57184 349.34064 156.43121 349.2625Q156.29059 349.1844 156.22809 349.1375Q156.16559 349.075 156.13434 348.96564Q156.10309 348.85626 156.10309 348.6844Q156.10309 348.575 156.11871 348.4969Q156.13434 348.41876 156.14996 348.3719Q156.16559 348.325 156.19684 348.3094Q156.22809 348.27814 156.27496 348.27814Q156.33746 348.27814 156.46246 348.35626Q156.58746 348.4344 156.77496 348.52814Q156.96246 348.6219 157.21246 348.71564Q157.46246 348.79376 157.79059 348.79376Q158.04059 348.79376 158.22809 348.7469Q158.43121 348.6844 158.57184 348.59064Q158.72809 348.48126 158.80621 348.325Q158.88434 348.15314 158.88434 347.95Q158.88434 347.71564 158.77496 347.575Q158.66559 347.41876 158.47809 347.3094Q158.29059 347.1844 158.05621 347.09064Q157.82184 346.9969 157.57184 346.90314Q157.32184 346.79376 157.07184 346.66876Q156.83746 346.54376 156.64996 346.3719Q156.46246 346.1844 156.35309 345.9344Q156.24371 345.6844 156.24371 345.325Q156.24371 345.0125 156.35309 344.73126Q156.47809 344.45 156.71246 344.2469Q156.96246 344.02814 157.32184 343.90314Q157.68121 343.7625 158.16559 343.7625Q158.36871 343.7625 158.57184 343.8094Q158.79059 343.84064 158.96246 343.8875Q159.13434 343.9344 159.24371 343.9969Q159.36871 344.0594 159.43121 344.10626Q159.49371 344.15314 159.50934 344.2Q159.54059 344.23126 159.54059 344.27814Q159.55621 344.3094 159.55621 344.3875Q159.57184 344.45 159.57184 344.54376Q159.57184 344.6375 159.55621 344.71564Q159.55621 344.77814 159.52496 344.825Q159.50934 344.8719 159.47809 344.90314Q159.46246 344.91876 159.41559 344.91876Q159.36871 344.91876 159.25934 344.85626Q159.16559 344.79376 159.00934 344.71564Q158.85309 344.6375 158.63434 344.575Q158.43121 344.5125 158.14996 344.5125Q157.89996 344.5125 157.71246 344.575Q157.52496 344.6219 157.39996 344.73126Q157.29059 344.825 157.22809 344.96564Q157.16559 345.10626 157.16559 345.27814Q157.16559 345.5125 157.27496 345.66876Q157.39996 345.8094 157.58746 345.9344Q157.77496 346.04376 158.00934 346.1375Q158.25934 346.23126 158.50934 346.34064Q158.75934 346.4344 158.99371 346.5594Q159.24371 346.6844 159.43121 346.85626Q159.61871 347.02814 159.72809 347.27814Q159.83746 347.52814 159.83746 347.8719ZM167.02496 346.4344Q167.02496 346.66876 166.91559 346.7625Q166.80621 346.85626 166.64996 346.85626L163.19684 346.85626Q163.19684 347.29376 163.27496 347.65314Q163.36871 347.9969 163.57184 348.2625Q163.79059 348.5125 164.11871 348.65314Q164.44684 348.77814 164.91559 348.77814Q165.29059 348.77814 165.58746 348.71564Q165.88434 348.65314 166.08746 348.575Q166.30621 348.4969 166.44684 348.4344Q166.58746 348.3719 166.64996 348.3719Q166.69684 348.3719 166.72809 348.40314Q166.75934 348.41876 166.77496 348.46564Q166.79059 348.4969 166.79059 348.575Q166.80621 348.65314 166.80621 348.7469Q166.80621 348.825 166.79059 348.8875Q166.79059 348.9344 166.77496 348.98126Q166.77496 349.02814 166.75934 349.0594Q166.74371 349.09064 166.71246 349.1375Q166.68121 349.16876 166.50934 349.2469Q166.35309 349.3094 166.10309 349.3875Q165.85309 349.45 165.52496 349.4969Q165.19684 349.5594 164.82184 349.5594Q164.16559 349.5594 163.66559 349.3875Q163.18121 349.2 162.85309 348.84064Q162.52496 348.48126 162.35309 347.95Q162.18121 347.40314 162.18121 346.6844Q162.18121 346.0125 162.35309 345.46564Q162.52496 344.91876 162.85309 344.54376Q163.19684 344.16876 163.66559 343.96564Q164.13434 343.7625 164.71246 343.7625Q165.33746 343.7625 165.77496 343.96564Q166.21246 344.16876 166.49371 344.5125Q166.77496 344.84064 166.89996 345.29376Q167.02496 345.7469 167.02496 346.2625L167.02496 346.4344ZM166.05621 346.15314Q166.07184 345.3875 165.71246 344.96564Q165.36871 344.52814 164.66559 344.52814Q164.30621 344.52814 164.04059 344.66876Q163.77496 344.79376 163.58746 345.0125Q163.41559 345.23126 163.30621 345.52814Q163.21246 345.825 163.19684 346.15314L166.05621 346.15314ZM174.36871 347.29376Q174.36871 347.48126 174.30621 347.60626Q174.25934 347.71564 174.14996 347.71564L173.29059 347.71564L173.29059 349.3094Q173.29059 349.35626 173.25934 349.3875Q173.24371 349.41876 173.18121 349.45Q173.13434 349.46564 173.04059 349.46564Q172.94684 349.48126 172.79059 349.48126Q172.64996 349.48126 172.55621 349.46564Q172.46246 349.46564 172.39996 349.45Q172.35309 349.41876 172.33746 349.3875Q172.32184 349.35626 172.32184 349.3094L172.32184 347.71564L169.18121 347.71564Q169.11871 347.71564 169.07184 347.7Q169.02496 347.66876 168.97809 347.6219Q168.94684 347.575 168.93121 347.4969Q168.91559 347.40314 168.91559 347.2625Q168.91559 347.15314 168.91559 347.075Q168.93121 346.98126 168.94684 346.90314Q168.96246 346.825 168.99371 346.7625Q169.02496 346.7 169.05621 346.6219L171.79059 342.0125Q171.82184 341.96564 171.86871 341.9344Q171.93121 341.90314 172.00934 341.8875Q172.10309 341.85626 172.22809 341.84064Q172.36871 341.825 172.54059 341.825Q172.74371 341.825 172.88434 341.84064Q173.02496 341.85626 173.10309 341.8875Q173.19684 341.90314 173.24371 341.95Q173.29059 341.98126 173.29059 342.04376L173.29059 346.8719L174.14996 346.8719Q174.24371 346.8719 174.30621 346.98126Q174.36871 347.075 174.36871 347.29376ZM172.32184 342.71564L172.30621 342.71564L169.83746 346.8719L172.32184 346.8719L172.32184 342.71564ZM180.05621 349.0125Q180.05621 349.1219 180.04059 349.2Q180.02496 349.27814 179.99371 349.34064Q179.96246 349.40314 179.91559 349.4344Q179.88434 349.45 179.82184 349.45L175.63434 349.45Q175.55621 349.45 175.49371 349.4344Q175.43121 349.40314 175.38434 349.35626Q175.33746 349.3094 175.32184 349.23126Q175.30621 349.1375 175.30621 349.0125Q175.30621 348.8875 175.30621 348.8094Q175.32184 348.71564 175.35309 348.65314Q175.38434 348.575 175.41559 348.5125Q175.46246 348.45 175.54059 348.3719L177.00934 346.8094Q177.52496 346.27814 177.82184 345.85626Q178.13434 345.41876 178.29059 345.075Q178.46246 344.71564 178.50934 344.4344Q178.57184 344.1375 178.57184 343.8875Q178.57184 343.6375 178.49371 343.41876Q178.41559 343.1844 178.25934 343.0125Q178.10309 342.84064 177.86871 342.7469Q177.63434 342.65314 177.32184 342.65314Q176.96246 342.65314 176.68121 342.7469Q176.39996 342.84064 176.18121 342.96564Q175.97809 343.075 175.82184 343.1844Q175.68121 343.27814 175.61871 343.27814Q175.57184 343.27814 175.54059 343.2625Q175.50934 343.23126 175.47809 343.1844Q175.46246 343.1219 175.44684 343.04376Q175.44684 342.95 175.44684 342.825Q175.44684 342.7469 175.44684 342.6844Q175.46246 342.60626 175.46246 342.5594Q175.47809 342.5125 175.49371 342.48126Q175.52496 342.4344 175.58746 342.3719Q175.66559 342.3094 175.83746 342.21564Q176.02496 342.10626 176.27496 342.0125Q176.54059 341.90314 176.85309 341.84064Q177.16559 341.7625 177.50934 341.7625Q178.05621 341.7625 178.46246 341.91876Q178.88434 342.0594 179.14996 342.34064Q179.43121 342.60626 179.55621 342.96564Q179.69684 343.325 179.69684 343.73126Q179.69684 344.09064 179.63434 344.45Q179.57184 344.8094 179.36871 345.23126Q179.16559 345.65314 178.75934 346.16876Q178.36871 346.66876 177.72809 347.34064L176.52496 348.59064L179.82184 348.59064Q179.86871 348.59064 179.91559 348.6219Q179.96246 348.65314 179.99371 348.7Q180.02496 348.7469 180.04059 348.825Q180.05621 348.90314 180.05621 349.0125Z" fill-rule="nonzero"/><path fill="#000000" d="M305.35938 349.3094Q305.35938 349.35626 305.32812 349.3875Q305.3125 349.41876 305.26562 349.45Q305.21875 349.46564 305.125 349.46564Q305.03125 349.48126 304.875 349.48126Q304.73438 349.48126 304.64062 349.46564Q304.54688 349.46564 304.48438 349.45Q304.4375 349.41876 304.40625 349.3875Q304.39062 349.35626 304.39062 349.3094L304.39062 341.48126Q304.39062 341.4344 304.40625 341.40314Q304.4375 341.35626 304.48438 341.34064Q304.54688 341.3094 304.64062 341.3094Q304.73438 341.29376 304.875 341.29376Q305.03125 341.29376 305.125 341.3094Q305.21875 341.3094 305.26562 341.34064Q305.3125 341.35626 305.32812 341.40314Q305.35938 341.4344 305.35938 341.48126L305.35938 349.3094ZM312.9375 349.3094Q312.9375 349.35626 312.90625 349.3875Q312.89062 349.41876 312.82812 349.45Q312.78125 349.46564 312.6875 349.46564Q312.59375 349.48126 312.45312 349.48126Q312.3125 349.48126 312.21875 349.46564Q312.125 349.46564 312.0625 349.45Q312.01562 349.41876 311.98438 349.3875Q311.96875 349.35626 311.96875 349.3094L311.96875 346.21564Q311.96875 345.7625 311.89062 345.4969Q311.82812 345.21564 311.6875 345.0125Q311.5625 344.8094 311.34375 344.71564Q311.14062 344.60626 310.85938 344.60626Q310.48438 344.60626 310.125 344.8719Q309.76562 345.1219 309.35938 345.6219L309.35938 349.3094Q309.35938 349.35626 309.32812 349.3875Q309.3125 349.41876 309.26562 349.45Q309.21875 349.46564 309.125 349.46564Q309.03125 349.48126 308.875 349.48126Q308.73438 349.48126 308.64062 349.46564Q308.54688 349.46564 308.48438 349.45Q308.4375 349.41876 308.40625 349.3875Q308.39062 349.35626 308.39062 349.3094L308.39062 344.02814Q308.39062 343.98126 308.40625 343.95Q308.4375 343.91876 308.48438 343.90314Q308.53125 343.8719 308.60938 343.85626Q308.70312 343.84064 308.84375 343.84064Q308.96875 343.84064 309.04688 343.85626Q309.14062 343.8719 309.1875 343.90314Q309.23438 343.91876 309.25 343.95Q309.26562 343.98126 309.26562 344.02814L309.26562 344.73126Q309.71875 344.23126 310.15625 343.9969Q310.59375 343.7625 311.04688 343.7625Q311.57812 343.7625 311.9375 343.95Q312.29688 344.1219 312.51562 344.41876Q312.75 344.71564 312.84375 345.1219Q312.9375 345.52814 312.9375 346.09064L312.9375 349.3094ZM319.92188 349.0125Q319.92188 349.1219 319.90625 349.2Q319.89062 349.27814 319.85938 349.34064Q319.82812 349.40314 319.78125 349.4344Q319.75 349.45 319.6875 349.45L315.5 349.45Q315.42188 349.45 315.35938 349.4344Q315.29688 349.40314 315.25 349.35626Q315.20312 349.3094 315.1875 349.23126Q315.17188 349.1375 315.17188 349.0125Q315.17188 348.8875 315.17188 348.8094Q315.1875 348.71564 315.21875 348.65314Q315.25 348.575 315.28125 348.5125Q315.32812 348.45 315.40625 348.3719L316.875 346.8094Q317.39062 346.27814 317.6875 345.85626Q318.0 345.41876 318.15625 345.075Q318.32812 344.71564 318.375 344.4344Q318.4375 344.1375 318.4375 343.8875Q318.4375 343.6375 318.35938 343.41876Q318.28125 343.1844 318.125 343.0125Q317.96875 342.84064 317.73438 342.7469Q317.5 342.65314 317.1875 342.65314Q316.82812 342.65314 316.54688 342.7469Q316.26562 342.84064 316.04688 342.96564Q315.84375 343.075 315.6875 343.1844Q315.54688 343.27814 315.48438 343.27814Q315.4375 343.27814 315.40625 343.2625Q315.375 343.23126 315.34375 343.1844Q315.32812 343.1219 315.3125 343.04376Q315.3125 342.95 315.3125 342.825Q315.3125 342.7469 315.3125 342.6844Q315.32812 342.60626 315.32812 342.5594Q315.34375 342.5125 315.35938 342.48126Q315.39062 342.4344 315.45312 342.3719Q315.53125 342.3094 315.70312 342.21564Q315.89062 342.10626 316.14062 342.0125Q316.40625 341.90314 316.71875 341.84064Q317.03125 341.7625 317.375 341.7625Q317.92188 341.7625 318.32812 341.91876Q318.75 342.0594 319.01562 342.34064Q319.29688 342.60626 319.42188 342.96564Q319.5625 343.325 319.5625 343.73126Q319.5625 344.09064 319.5 344.45Q319.4375 344.8094 319.23438 345.23126Q319.03125 345.65314 318.625 346.16876Q318.23438 346.66876 317.59375 347.34064L316.39062 348.59064L319.6875 348.59064Q319.73438 348.59064 319.78125 348.6219Q319.82812 348.65314 319.85938 348.7Q319.89062 348.7469 319.90625 348.825Q319.92188 348.90314 319.92188 349.0125Z" fill-rule="nonzero"/><path fill="#000000" d="M456.72504 349.3094Q456.72504 349.35626 456.6938 349.3875Q456.67816 349.41876 456.6313 349.45Q456.5844 349.46564 456.49066 349.46564Q456.3969 349.48126 456.24066 349.48126Q456.10004 349.48126 456.0063 349.46564Q455.91254 349.46564 455.85004 349.45Q455.80316 349.41876 455.7719 349.3875Q455.7563 349.35626 455.7563 349.3094L455.7563 341.48126Q455.7563 341.4344 455.7719 341.40314Q455.80316 341.35626 455.85004 341.34064Q455.91254 341.3094 456.0063 341.3094Q456.10004 341.29376 456.24066 341.29376Q456.3969 341.29376 456.49066 341.3094Q456.5844 341.3094 456.6313 341.34064Q456.67816 341.35626 456.6938 341.40314Q456.72504 341.4344 456.72504 341.48126L456.72504 349.3094ZM464.30316 349.3094Q464.30316 349.35626 464.2719 349.3875Q464.2563 349.41876 464.1938 349.45Q464.1469 349.46564 464.05316 349.46564Q463.9594 349.48126 463.8188 349.48126Q463.67816 349.48126 463.5844 349.46564Q463.49066 349.46564 463.42816 349.45Q463.3813 349.41876 463.35004 349.3875Q463.3344 349.35626 463.3344 349.3094L463.3344 346.21564Q463.3344 345.7625 463.2563 345.4969Q463.1938 345.21564 463.05316 345.0125Q462.92816 344.8094 462.7094 344.71564Q462.5063 344.60626 462.22504 344.60626Q461.85004 344.60626 461.49066 344.8719Q461.1313 345.1219 460.72504 345.6219L460.72504 349.3094Q460.72504 349.35626 460.6938 349.3875Q460.67816 349.41876 460.6313 349.45Q460.5844 349.46564 460.49066 349.46564Q460.3969 349.48126 460.24066 349.48126Q460.10004 349.48126 460.0063 349.46564Q459.91254 349.46564 459.85004 349.45Q459.80316 349.41876 459.7719 349.3875Q459.7563 349.35626 459.7563 349.3094L459.7563 344.02814Q459.7563 343.98126 459.7719 343.95Q459.80316 343.91876 459.85004 343.90314Q459.8969 343.8719 459.97504 343.85626Q460.0688 343.84064 460.2094 343.84064Q460.3344 343.84064 460.41254 343.85626Q460.5063 343.8719 460.55316 343.90314Q460.60004 343.91876 460.61566 343.95Q460.6313 343.98126 460.6313 344.02814L460.6313 344.73126Q461.0844 344.23126 461.5219 343.9969Q461.9594 343.7625 462.41254 343.7625Q462.9438 343.7625 463.30316 343.95Q463.66254 344.1219 463.8813 344.41876Q464.11566 344.71564 464.2094 345.1219Q464.30316 345.52814 464.30316 346.09064L464.30316 349.3094ZM471.28754 349.0125Q471.28754 349.1219 471.2719 349.2Q471.2563 349.27814 471.22504 349.34064Q471.1938 349.40314 471.1469 349.4344Q471.11566 349.45 471.05316 349.45L466.86566 349.45Q466.78754 349.45 466.72504 349.4344Q466.66254 349.40314 466.61566 349.35626Q466.5688 349.3094 466.55316 349.23126Q466.53754 349.1375 466.53754 349.0125Q466.53754 348.8875 466.53754 348.8094Q466.55316 348.71564 466.5844 348.65314Q466.61566 348.575 466.6469 348.5125Q466.6938 348.45 466.7719 348.3719L468.24066 346.8094Q468.7563 346.27814 469.05316 345.85626Q469.36566 345.41876 469.5219 345.075Q469.6938 344.71564 469.74066 344.4344Q469.80316 344.1375 469.80316 343.8875Q469.80316 343.6375 469.72504 343.41876Q469.6469 343.1844 469.49066 343.0125Q469.3344 342.84064 469.10004 342.7469Q468.86566 342.65314 468.55316 342.65314Q468.1938 342.65314 467.91254 342.7469Q467.6313 342.84064 467.41254 342.96564Q467.2094 343.075 467.05316 343.1844Q466.91254 343.27814 466.85004 343.27814Q466.80316 343.27814 466.7719 343.2625Q466.74066 343.23126 466.7094 343.1844Q466.6938 343.1219 466.67816 343.04376Q466.67816 342.95 466.67816 342.825Q466.67816 342.7469 466.67816 342.6844Q466.6938 342.60626 466.6938 342.5594Q466.7094 342.5125 466.72504 342.48126Q466.7563 342.4344 466.8188 342.3719Q466.8969 342.3094 467.0688 342.21564Q467.2563 342.10626 467.5063 342.0125Q467.7719 341.90314 468.0844 341.84064Q468.3969 341.7625 468.74066 341.7625Q469.28754 341.7625 469.6938 341.91876Q470.11566 342.0594 470.3813 342.34064Q470.66254 342.60626 470.78754 342.96564Q470.92816 343.325 470.92816 343.73126Q470.92816 344.09064 470.86566 344.45Q470.80316 344.8094 470.60004 345.23126Q470.3969 345.65314 469.99066 346.16876Q469.60004 346.66876 468.9594 347.34064L467.7563 348.59064L471.05316 348.59064Q471.10004 348.59064 471.1469 348.6219Q471.1938 348.65314 471.22504 348.7Q471.2563 348.7469 471.2719 348.825Q471.28754 348.90314 471.28754 349.0125ZM477.86566 351.2Q477.86566 351.40314 477.8188 351.4969Q477.7719 351.59064 477.67816 351.59064L472.03754 351.59064Q471.92816 351.59064 471.86566 351.4969Q471.8188 351.41876 471.8188 351.21564Q471.8188 351.0125 471.86566 350.90314Q471.92816 350.8094 472.03754 350.8094L477.67816 350.8094Q477.7719 350.8094 477.8188 350.90314Q477.86566 350.9969 477.86566 351.2ZM481.6469 341.85626Q481.6469 341.96564 481.6313 342.04376Q481.6313 342.10626 481.61566 342.15314Q481.60004 342.1844 481.5688 342.2Q481.55316 342.21564 481.5219 342.21564Q481.47504 342.21564 481.41254 342.2Q481.35004 342.16876 481.2563 342.1375Q481.17816 342.10626 481.05316 342.075Q480.9438 342.04376 480.7719 342.04376Q480.5688 342.04376 480.41254 342.1219Q480.2563 342.1844 480.16254 342.34064Q480.0688 342.48126 480.0219 342.73126Q479.99066 342.96564 479.99066 343.3094L479.99066 343.8719L481.16254 343.8719Q481.2094 343.8719 481.24066 343.90314Q481.2719 343.91876 481.30316 343.96564Q481.3344 344.0125 481.35004 344.09064Q481.36566 344.16876 481.36566 344.27814Q481.36566 344.4969 481.30316 344.59064Q481.2563 344.6844 481.16254 344.6844L479.99066 344.6844L479.99066 349.3094Q479.99066 349.35626 479.9594 349.3875Q479.9438 349.41876 479.8813 349.45Q479.8344 349.46564 479.74066 349.46564Q479.6469 349.48126 479.5063 349.48126Q479.36566 349.48126 479.2719 349.46564Q479.17816 349.46564 479.11566 349.45Q479.0688 349.41876 479.03754 349.3875Q479.0219 349.35626 479.0219 349.3094L479.0219 344.6844L478.2719 344.6844Q478.17816 344.6844 478.1313 344.59064Q478.0844 344.4969 478.0844 344.27814Q478.0844 344.16876 478.0844 344.09064Q478.10004 344.0125 478.11566 343.96564Q478.1469 343.91876 478.17816 343.90314Q478.22504 343.8719 478.2719 343.8719L479.0219 343.8719L479.0219 343.325Q479.0219 342.77814 479.11566 342.3875Q479.22504 341.9969 479.42816 341.7469Q479.6469 341.48126 479.9594 341.3719Q480.28754 341.2469 480.7094 341.2469Q480.91254 341.2469 481.10004 341.29376Q481.30316 341.325 481.41254 341.3719Q481.5219 341.40314 481.55316 341.45Q481.5844 341.48126 481.60004 341.54376Q481.6313 341.59064 481.6313 341.66876Q481.6469 341.7469 481.6469 341.85626ZM486.55316 348.4969Q486.55316 348.60626 486.53754 348.6844Q486.53754 348.7469 486.5219 348.79376Q486.5063 348.84064 486.49066 348.8875Q486.47504 348.91876 486.3969 348.9969Q486.3188 349.075 486.1469 349.1844Q485.97504 349.27814 485.7563 349.3719Q485.53754 349.45 485.2719 349.4969Q485.0219 349.5594 484.74066 349.5594Q484.17816 349.5594 483.74066 349.3719Q483.30316 349.1844 483.0063 348.825Q482.7094 348.46564 482.55316 347.95Q482.3969 347.41876 482.3969 346.73126Q482.3969 345.95 482.5844 345.3875Q482.7719 344.825 483.10004 344.48126Q483.4438 344.1219 483.8813 343.95Q484.3344 343.77814 484.85004 343.77814Q485.10004 343.77814 485.3344 343.825Q485.5844 343.8719 485.7719 343.95Q485.97504 344.0125 486.1313 344.1219Q486.28754 344.21564 486.35004 344.29376Q486.42816 344.35626 486.4594 344.40314Q486.49066 344.4344 486.5063 344.4969Q486.5219 344.54376 486.5219 344.6219Q486.53754 344.6844 486.53754 344.79376Q486.53754 345.02814 486.47504 345.1219Q486.42816 345.2 486.35004 345.2Q486.2563 345.2 486.1469 345.10626Q486.03754 345.0125 485.85004 344.90314Q485.67816 344.77814 485.42816 344.6844Q485.17816 344.59064 484.85004 344.59064Q484.1469 344.59064 483.7719 345.1219Q483.3969 345.65314 483.3969 346.6844Q483.3969 347.1844 483.49066 347.575Q483.60004 347.95 483.78754 348.21564Q483.97504 348.46564 484.24066 348.59064Q484.5219 348.71564 484.86566 348.71564Q485.1938 348.71564 485.4438 348.6219Q485.7094 348.5125 485.8813 348.3875Q486.0688 348.2625 486.1938 348.16876Q486.3188 348.0594 486.3969 348.0594Q486.4438 348.0594 486.4594 348.09064Q486.49066 348.10626 486.5063 348.16876Q486.53754 348.21564 486.53754 348.3094Q486.55316 348.3875 486.55316 348.4969ZM490.5063 348.91876Q490.5063 349.09064 490.47504 349.1844Q490.4594 349.27814 490.41254 349.325Q490.36566 349.3719 490.2719 349.41876Q490.17816 349.46564 490.05316 349.48126Q489.9438 349.5125 489.80316 349.52814Q489.66254 349.54376 489.53754 349.54376Q489.11566 349.54376 488.8188 349.4344Q488.53754 349.325 488.35004 349.10626Q488.16254 348.8875 488.0688 348.5594Q487.99066 348.21564 487.99066 347.7625L487.99066 344.6844L487.2563 344.6844Q487.16254 344.6844 487.10004 344.59064Q487.05316 344.4969 487.05316 344.27814Q487.05316 344.16876 487.0688 344.09064Q487.0844 344.0125 487.10004 343.96564Q487.1313 343.91876 487.16254 343.90314Q487.2094 343.8719 487.2563 343.8719L487.99066 343.8719L487.99066 342.6219Q487.99066 342.575 488.0063 342.54376Q488.03754 342.5125 488.0844 342.4969Q488.1469 342.46564 488.24066 342.45Q488.3344 342.4344 488.47504 342.4344Q488.61566 342.4344 488.7094 342.45Q488.80316 342.46564 488.85004 342.4969Q488.91254 342.5125 488.92816 342.54376Q488.9594 342.575 488.9594 342.6219L488.9594 343.8719L490.3188 343.8719Q490.36566 343.8719 490.3969 343.90314Q490.42816 343.91876 490.4438 343.96564Q490.47504 344.0125 490.49066 344.09064Q490.5063 344.16876 490.5063 344.27814Q490.5063 344.4969 490.4438 344.59064Q490.3969 344.6844 490.3188 344.6844L488.9594 344.6844L488.9594 347.6219Q488.9594 348.16876 489.11566 348.45Q489.28754 348.71564 489.6938 348.71564Q489.8344 348.71564 489.92816 348.7Q490.03754 348.66876 490.11566 348.6375Q490.2094 348.60626 490.2563 348.59064Q490.3188 348.5594 490.36566 348.5594Q490.3969 348.5594 490.42816 348.575Q490.4594 348.59064 490.4594 348.6375Q490.47504 348.66876 490.49066 348.7469Q490.5063 348.8094 490.5063 348.91876Z" fill-rule="nonzero"/><path fill="#5b9bd5" d="M254.0 51.916668C254.0 51.364384 254.44771 50.916668 255.0 50.916668L265.0 50.916668C265.55228 50.916668 266.0 51.364384 266.0 51.916668L266.0 61.916668C266.0 62.468952 265.55228 62.916668 265.0 62.916668L255.0 62.916668C254.44771 62.916668 254.0 62.468952 254.0 61.916668Z" fill-rule="nonzero"/><path fill="#1a1a1a" d="M277.26562 56.963543Q277.26562 57.182293 277.21875 57.276043Q277.17188 57.354168 277.0625 57.354168L274.60938 57.354168Q274.51562 57.354168 274.45312 57.276043Q274.40625 57.182293 274.40625 56.963543Q274.40625 56.729168 274.45312 56.651043Q274.51562 56.557293 274.60938 56.557293L277.0625 56.557293Q277.10938 56.557293 277.14062 56.572918Q277.1875 56.588543 277.20312 56.651043Q277.23438 56.697918 277.25 56.776043Q277.26562 56.838543 277.26562 56.963543ZM285.35938 56.041668Q285.35938 56.963543 285.14062 57.697918Q284.92188 58.432293 284.48438 58.947918Q284.0625 59.463543 283.40625 59.744793Q282.76562 60.026043 281.89062 60.026043Q281.04688 60.026043 280.42188 59.776043Q279.79688 59.510418 279.39062 59.026043Q278.98438 58.541668 278.78125 57.822918Q278.57812 57.104168 278.57812 56.166668Q278.57812 55.276043 278.79688 54.541668Q279.01562 53.807293 279.4375 53.291668Q279.875 52.776043 280.53125 52.510418Q281.1875 52.229168 282.04688 52.229168Q282.89062 52.229168 283.5 52.479168Q284.125 52.729168 284.53125 53.213543Q284.95312 53.697918 285.15625 54.416668Q285.35938 55.119793 285.35938 56.041668ZM284.29688 56.104168Q284.29688 55.463543 284.1875 54.916668Q284.07812 54.354168 283.79688 53.947918Q283.53125 53.541668 283.07812 53.322918Q282.64062 53.088543 281.98438 53.088543Q281.32812 53.088543 280.875 53.338543Q280.4375 53.572918 280.15625 53.994793Q279.89062 54.401043 279.76562 54.947918Q279.64062 55.494793 279.64062 56.088543Q279.64062 56.760418 279.75 57.322918Q279.875 57.885418 280.125 58.291668Q280.39062 58.697918 280.82812 58.932293Q281.28125 59.151043 281.95312 59.151043Q282.60938 59.151043 283.0625 58.916668Q283.51562 58.666668 283.78125 58.244793Q284.0625 57.822918 284.17188 57.276043Q284.29688 56.729168 284.29688 56.104168ZM291.4375 59.510418Q291.4375 59.635418 291.40625 59.713543Q291.39062 59.776043 291.35938 59.822918Q291.34375 59.869793 291.29688 59.901043Q291.26562 59.916668 291.21875 59.916668L287.26562 59.916668Q287.21875 59.916668 287.1875 59.901043Q287.15625 59.869793 287.10938 59.822918Q287.07812 59.776043 287.0625 59.713543Q287.04688 59.635418 287.04688 59.510418Q287.04688 59.416668 287.0625 59.338543Q287.07812 59.260418 287.10938 59.213543Q287.14062 59.166668 287.17188 59.135418Q287.21875 59.104168 287.26562 59.104168L288.84375 59.104168L288.84375 53.338543L287.375 54.213543Q287.26562 54.276043 287.1875 54.291668Q287.125 54.291668 287.07812 54.260418Q287.04688 54.213543 287.03125 54.135418Q287.01562 54.041668 287.01562 53.916668Q287.01562 53.807293 287.01562 53.744793Q287.03125 53.666668 287.04688 53.619793Q287.07812 53.572918 287.10938 53.541668Q287.14062 53.510418 287.1875 53.463543L288.9375 52.354168Q288.95312 52.338543 288.98438 52.322918Q289.03125 52.307293 289.07812 52.307293Q289.14062 52.291668 289.20312 52.291668Q289.28125 52.276043 289.375 52.276043Q289.51562 52.276043 289.60938 52.291668Q289.70312 52.307293 289.75 52.322918Q289.8125 52.338543 289.82812 52.385418Q289.84375 52.416668 289.84375 52.447918L289.84375 59.104168L291.21875 59.104168Q291.26562 59.104168 291.29688 59.135418Q291.34375 59.166668 291.375 59.213543Q291.40625 59.260418 291.42188 59.338543Q291.4375 59.416668 291.4375 59.510418Z" fill-rule="nonzero"/><path fill="#ed7d31" d="M308.0 51.916668C308.0 51.364384 308.44772 50.916668 309.0 50.916668L319.0 50.916668C319.55228 50.916668 320.0 51.364384 320.0 51.916668L320.0 61.916668C320.0 62.468952 319.55228 62.916668 319.0 62.916668L309.0 62.916668C308.44772 62.916668 308.0 62.468952 308.0 61.916668Z" fill-rule="nonzero"/><path fill="#1a1a1a" d="M331.26562 56.963543Q331.26562 57.182293 331.21875 57.276043Q331.17188 57.354168 331.0625 57.354168L328.60938 57.354168Q328.51562 57.354168 328.45312 57.276043Q328.40625 57.182293 328.40625 56.963543Q328.40625 56.729168 328.45312 56.651043Q328.51562 56.557293 328.60938 56.557293L331.0625 56.557293Q331.10938 56.557293 331.14062 56.572918Q331.1875 56.588543 331.20312 56.651043Q331.23438 56.697918 331.25 56.776043Q331.26562 56.838543 331.26562 56.963543ZM339.35938 56.041668Q339.35938 56.963543 339.14062 57.697918Q338.92188 58.432293 338.48438 58.947918Q338.0625 59.463543 337.40625 59.744793Q336.76562 60.026043 335.89062 60.026043Q335.04688 60.026043 334.42188 59.776043Q333.79688 59.510418 333.39062 59.026043Q332.98438 58.541668 332.78125 57.822918Q332.57812 57.104168 332.57812 56.166668Q332.57812 55.276043 332.79688 54.541668Q333.01562 53.807293 333.4375 53.291668Q333.875 52.776043 334.53125 52.510418Q335.1875 52.229168 336.04688 52.229168Q336.89062 52.229168 337.5 52.479168Q338.125 52.729168 338.53125 53.213543Q338.95312 53.697918 339.15625 54.416668Q339.35938 55.119793 339.35938 56.041668ZM338.29688 56.104168Q338.29688 55.463543 338.1875 54.916668Q338.07812 54.354168 337.79688 53.947918Q337.53125 53.541668 337.07812 53.322918Q336.64062 53.088543 335.98438 53.088543Q335.32812 53.088543 334.875 53.338543Q334.4375 53.572918 334.15625 53.994793Q333.89062 54.401043 333.76562 54.947918Q333.64062 55.494793 333.64062 56.088543Q333.64062 56.760418 333.75 57.322918Q333.875 57.885418 334.125 58.291668Q334.39062 58.697918 334.82812 58.932293Q335.28125 59.151043 335.95312 59.151043Q336.60938 59.151043 337.0625 58.916668Q337.51562 58.666668 337.78125 58.244793Q338.0625 57.822918 338.17188 57.276043Q338.29688 56.729168 338.29688 56.104168ZM345.42188 59.479168Q345.42188 59.588543 345.40625 59.666668Q345.39062 59.744793 345.35938 59.807293Q345.32812 59.869793 345.28125 59.901043Q345.25 59.916668 345.1875 59.916668L341.0 59.916668Q340.92188 59.916668 340.85938 59.901043Q340.79688 59.869793 340.75 59.822918Q340.70312 59.776043 340.6875 59.697918Q340.67188 59.604168 340.67188 59.479168Q340.67188 59.354168 340.67188 59.276043Q340.6875 59.182293 340.71875 59.119793Q340.75 59.041668 340.78125 58.979168Q340.82812 58.916668 340.90625 58.838543L342.375 57.276043Q342.89062 56.744793 343.1875 56.322918Q343.5 55.885418 343.65625 55.541668Q343.82812 55.182293 343.875 54.901043Q343.9375 54.604168 343.9375 54.354168Q343.9375 54.104168 343.85938 53.885418Q343.78125 53.651043 343.625 53.479168Q343.46875 53.307293 343.23438 53.213543Q343.0 53.119793 342.6875 53.119793Q342.32812 53.119793 342.04688 53.213543Q341.76562 53.307293 341.54688 53.432293Q341.34375 53.541668 341.1875 53.651043Q341.04688 53.744793 340.98438 53.744793Q340.9375 53.744793 340.90625 53.729168Q340.875 53.697918 340.84375 53.651043Q340.82812 53.588543 340.8125 53.510418Q340.8125 53.416668 340.8125 53.291668Q340.8125 53.213543 340.8125 53.151043Q340.82812 53.072918 340.82812 53.026043Q340.84375 52.979168 340.85938 52.947918Q340.89062 52.901043 340.95312 52.838543Q341.03125 52.776043 341.20312 52.682293Q341.39062 52.572918 341.64062 52.479168Q341.90625 52.369793 342.21875 52.307293Q342.53125 52.229168 342.875 52.229168Q343.42188 52.229168 343.82812 52.385418Q344.25 52.526043 344.51562 52.807293Q344.79688 53.072918 344.92188 53.432293Q345.0625 53.791668 345.0625 54.197918Q345.0625 54.557293 345.0 54.916668Q344.9375 55.276043 344.73438 55.697918Q344.53125 56.119793 344.125 56.635418Q343.73438 57.135418 343.09375 57.807293L341.89062 59.057293L345.1875 59.057293Q345.23438 59.057293 345.28125 59.088543Q345.32812 59.119793 345.35938 59.166668Q345.39062 59.213543 345.40625 59.291668Q345.42188 59.369793 345.42188 59.479168Z" fill-rule="nonzero"/><path fill="#757575" d="M29.721874 22.628124Q29.721874 22.815624 29.70625 22.95625Q29.690624 23.096874 29.64375 23.190624Q29.6125 23.284374 29.55 23.33125Q29.4875 23.3625 29.425 23.3625Q29.3 23.3625 29.01875 23.175Q28.753124 22.9875 28.284374 22.76875Q27.83125 22.55 27.190624 22.3625Q26.565624 22.175 25.675 22.175Q24.628124 22.175 23.8 22.565624Q22.971874 22.940624 22.39375 23.6125Q21.815624 24.284374 21.503124 25.221874Q21.20625 26.14375 21.20625 27.221874Q21.20625 28.425 21.534374 29.3625Q21.878124 30.3 22.471874 30.95625Q23.065624 31.596874 23.89375 31.925Q24.721874 32.253124 25.70625 32.253124Q26.3 32.253124 26.89375 32.1125Q27.503124 31.971874 28.01875 31.690624L28.01875 28.01875L25.08125 28.01875Q24.925 28.01875 24.83125 27.846874Q24.753124 27.675 24.753124 27.33125Q24.753124 27.14375 24.76875 27.01875Q24.784374 26.878124 24.83125 26.8Q24.878124 26.70625 24.940624 26.675Q25.003124 26.628124 25.08125 26.628124L29.096874 26.628124Q29.20625 26.628124 29.315624 26.675Q29.425 26.70625 29.503124 26.784374Q29.596874 26.8625 29.64375 27.003124Q29.690624 27.14375 29.690624 27.315624L29.690624 32.128124Q29.690624 32.39375 29.596874 32.58125Q29.51875 32.753124 29.2375 32.89375Q28.95625 33.034374 28.503124 33.20625Q28.05 33.378124 27.565624 33.503124Q27.096874 33.6125 26.596874 33.659374Q26.1125 33.721874 25.64375 33.721874Q24.175 33.721874 23.01875 33.26875Q21.878124 32.815624 21.08125 31.9875Q20.284374 31.14375 19.8625 29.971874Q19.440624 28.8 19.440624 27.346874Q19.440624 25.846874 19.89375 24.628124Q20.346874 23.409374 21.175 22.55Q22.003124 21.690624 23.159374 21.221874Q24.315624 20.7375 25.721874 20.7375Q26.440624 20.7375 27.065624 20.8625Q27.70625 20.9875 28.190624 21.159374Q28.690624 21.33125 29.034374 21.534374Q29.378124 21.7375 29.503124 21.8625Q29.628124 21.9875 29.675 22.159374Q29.721874 22.315624 29.721874 22.628124ZM39.659374 33.315624Q39.659374 33.425 39.58125 33.4875Q39.503124 33.55 39.3625 33.58125Q39.2375 33.6125 38.971874 33.6125Q38.721874 33.6125 38.565624 33.58125Q38.409374 33.55 38.346874 33.4875Q38.284374 33.425 38.284374 33.315624L38.284374 32.440624Q37.70625 33.05 36.9875 33.39375Q36.284374 33.7375 35.503124 33.7375Q34.8 33.7375 34.2375 33.55Q33.675 33.378124 33.284374 33.034374Q32.89375 32.690624 32.675 32.190624Q32.45625 31.690624 32.45625 31.065624Q32.45625 30.315624 32.753124 29.76875Q33.05 29.221874 33.6125 28.8625Q34.190624 28.503124 35.003124 28.33125Q35.83125 28.14375 36.846874 28.14375L38.065624 28.14375L38.065624 27.45625Q38.065624 26.940624 37.95625 26.55Q37.846874 26.159374 37.6125 25.909374Q37.378124 25.64375 36.9875 25.51875Q36.6125 25.378124 36.05 25.378124Q35.45625 25.378124 34.971874 25.534374Q34.503124 25.675 34.14375 25.846874Q33.8 26.003124 33.55 26.159374Q33.315624 26.3 33.20625 26.3Q33.128124 26.3 33.065624 26.26875Q33.003124 26.221874 32.95625 26.14375Q32.925 26.065624 32.89375 25.940624Q32.878124 25.815624 32.878124 25.675Q32.878124 25.425 32.909374 25.284374Q32.940624 25.14375 33.065624 25.01875Q33.20625 24.89375 33.534374 24.721874Q33.8625 24.55 34.26875 24.409374Q34.690624 24.26875 35.190624 24.175Q35.690624 24.08125 36.20625 24.08125Q37.14375 24.08125 37.8 24.3Q38.471874 24.503124 38.878124 24.925Q39.3 25.33125 39.471874 25.95625Q39.659374 26.565624 39.659374 27.39375L39.659374 33.315624ZM38.065624 29.3L36.690624 29.3Q36.01875 29.3 35.534374 29.409374Q35.05 29.51875 34.721874 29.753124Q34.409374 29.971874 34.253124 30.284374Q34.096874 30.58125 34.096874 30.9875Q34.096874 31.659374 34.534374 32.065624Q34.971874 32.471874 35.753124 32.471874Q36.378124 32.471874 36.925 32.159374Q37.471874 31.83125 38.065624 31.159374L38.065624 29.3ZM44.659374 33.3Q44.659374 33.378124 44.6125 33.440624Q44.58125 33.4875 44.4875 33.534374Q44.409374 33.565624 44.253124 33.58125Q44.096874 33.6125 43.846874 33.6125Q43.6125 33.6125 43.45625 33.58125Q43.3 33.565624 43.20625 33.534374Q43.1125 33.4875 43.08125 33.440624Q43.05 33.378124 43.05 33.3L43.05 24.51875Q43.05 24.440624 43.08125 24.39375Q43.1125 24.33125 43.20625 24.3Q43.3 24.253124 43.45625 24.2375Q43.6125 24.20625 43.846874 24.20625Q44.096874 24.20625 44.253124 24.2375Q44.409374 24.253124 44.4875 24.3Q44.58125 24.33125 44.6125 24.39375Q44.659374 24.440624 44.659374 24.51875L44.659374 33.3ZM44.846874 21.55Q44.846874 22.1125 44.628124 22.315624Q44.409374 22.51875 43.83125 22.51875Q43.26875 22.51875 43.05 22.33125Q42.846874 22.128124 42.846874 21.565624Q42.846874 21.003124 43.065624 20.8Q43.284374 20.596874 43.8625 20.596874Q44.425 20.596874 44.628124 20.8Q44.846874 20.9875 44.846874 21.55ZM55.6125 33.3Q55.6125 33.378124 55.565624 33.440624Q55.534374 33.4875 55.440624 33.534374Q55.3625 33.565624 55.20625 33.58125Q55.05 33.6125 54.815624 33.6125Q54.565624 33.6125 54.409374 33.58125Q54.253124 33.565624 54.159374 33.534374Q54.08125 33.4875 54.034374 33.440624Q54.003124 33.378124 54.003124 33.3L54.003124 28.159374Q54.003124 27.409374 53.878124 26.95625Q53.76875 26.4875 53.534374 26.159374Q53.315624 25.83125 52.95625 25.659374Q52.6125 25.471874 52.14375 25.471874Q51.534374 25.471874 50.925 25.909374Q50.315624 26.33125 49.659374 27.159374L49.659374 33.3Q49.659374 33.378124 49.6125 33.440624Q49.58125 33.4875 49.4875 33.534374Q49.409374 33.565624 49.253124 33.58125Q49.096874 33.6125 48.846874 33.6125Q48.6125 33.6125 48.45625 33.58125Q48.3 33.565624 48.20625 33.534374Q48.1125 33.4875 48.08125 33.440624Q48.05 33.378124 48.05 33.3L48.05 24.51875Q48.05 24.440624 48.065624 24.39375Q48.096874 24.33125 48.190624 24.284374Q48.284374 24.2375 48.409374 24.221874Q48.55 24.20625 48.784374 24.20625Q48.9875 24.20625 49.128124 24.221874Q49.26875 24.2375 49.346874 24.284374Q49.425 24.33125 49.45625 24.39375Q49.503124 24.440624 49.503124 24.51875L49.503124 25.675Q50.2375 24.846874 50.971874 24.471874Q51.721874 24.08125 52.471874 24.08125Q53.346874 24.08125 53.940624 24.378124Q54.55 24.675 54.909374 25.175Q55.284374 25.675 55.440624 26.346874Q55.6125 27.003124 55.6125 27.940624L55.6125 33.3ZM71.55 28.534374Q71.55 28.909374 71.34688 29.08125Q71.15938 29.2375 70.925 29.2375L65.15938 29.2375Q65.15938 29.971874 65.3 30.565624Q65.45625 31.14375 65.78438 31.565624Q66.12813 31.971874 66.675 32.20625Q67.22188 32.425 68.01875 32.425Q68.64375 32.425 69.12813 32.33125Q69.62813 32.221874 69.97188 32.096874Q70.33125 31.971874 70.56563 31.878124Q70.8 31.76875 70.90938 31.76875Q70.97188 31.76875 71.01875 31.8Q71.08125 31.83125 71.1125 31.909374Q71.14375 31.971874 71.15938 32.096874Q71.175 32.20625 71.175 32.39375Q71.175 32.51875 71.15938 32.6125Q71.15938 32.70625 71.14375 32.784374Q71.12813 32.846874 71.08125 32.909374Q71.05 32.95625 71.00313 33.01875Q70.95625 33.065624 70.69063 33.190624Q70.425 33.315624 70.00313 33.440624Q69.58125 33.55 69.01875 33.64375Q68.47188 33.7375 67.84688 33.7375Q66.76875 33.7375 65.95625 33.440624Q65.14375 33.128124 64.58125 32.534374Q64.01875 31.940624 63.7375 31.05Q63.45625 30.14375 63.45625 28.95625Q63.45625 27.815624 63.753124 26.909374Q64.05 26.003124 64.59688 25.378124Q65.14375 24.753124 65.925 24.425Q66.70625 24.08125 67.675 24.08125Q68.70625 24.08125 69.44063 24.409374Q70.175 24.7375 70.64375 25.3Q71.1125 25.8625 71.33125 26.628124Q71.55 27.378124 71.55 28.2375L71.55 28.534374ZM69.925 28.05Q69.95625 26.784374 69.3625 26.065624Q68.76875 25.33125 67.6125 25.33125Q67.01875 25.33125 66.56563 25.565624Q66.1125 25.784374 65.8 26.159374Q65.50313 26.534374 65.33125 27.034374Q65.175 27.51875 65.15938 28.05L69.925 28.05ZM81.6125 33.3Q81.6125 33.378124 81.56563 33.440624Q81.53438 33.4875 81.44063 33.534374Q81.3625 33.565624 81.20625 33.58125Q81.05 33.6125 80.81563 33.6125Q80.56563 33.6125 80.40938 33.58125Q80.25313 33.565624 80.15938 33.534374Q80.08125 33.4875 80.03438 33.440624Q80.00313 33.378124 80.00313 33.3L80.00313 28.159374Q80.00313 27.409374 79.87813 26.95625Q79.76875 26.4875 79.53438 26.159374Q79.31563 25.83125 78.95625 25.659374Q78.6125 25.471874 78.14375 25.471874Q77.53438 25.471874 76.925 25.909374Q76.31563 26.33125 75.65938 27.159374L75.65938 33.3Q75.65938 33.378124 75.6125 33.440624Q75.58125 33.4875 75.4875 33.534374Q75.40938 33.565624 75.25313 33.58125Q75.09688 33.6125 74.84688 33.6125Q74.6125 33.6125 74.45625 33.58125Q74.3 33.565624 74.20625 33.534374Q74.1125 33.4875 74.08125 33.440624Q74.05 33.378124 74.05 33.3L74.05 24.51875Q74.05 24.440624 74.06563 24.39375Q74.09688 24.33125 74.19063 24.284374Q74.28438 24.2375 74.40938 24.221874Q74.55 24.20625 74.78438 24.20625Q74.9875 24.20625 75.12813 24.221874Q75.26875 24.2375 75.34688 24.284374Q75.425 24.33125 75.45625 24.39375Q75.50313 24.440624 75.50313 24.51875L75.50313 25.675Q76.2375 24.846874 76.97188 24.471874Q77.72188 24.08125 78.47188 24.08125Q79.34688 24.08125 79.94063 24.378124Q80.55 24.675 80.90938 25.175Q81.28438 25.675 81.44063 26.346874Q81.6125 27.003124 81.6125 27.940624L81.6125 33.3ZM97.6125 33.3Q97.6125 33.378124 97.56563 33.440624Q97.53438 33.4875 97.44063 33.534374Q97.3625 33.565624 97.20625 33.58125Q97.05 33.6125 96.81563 33.6125Q96.56563 33.6125 96.40938 33.58125Q96.25313 33.565624 96.15938 33.534374Q96.08125 33.4875 96.03438 33.440624Q96.00313 33.378124 96.00313 33.3L96.00313 28.159374Q96.00313 27.409374 95.87813 26.95625Q95.76875 26.4875 95.53438 26.159374Q95.31563 25.83125 94.95625 25.659374Q94.6125 25.471874 94.14375 25.471874Q93.53438 25.471874 92.925 25.909374Q92.31563 26.33125 91.65938 27.159374L91.65938 33.3Q91.65938 33.378124 91.6125 33.440624Q91.58125 33.4875 91.4875 33.534374Q91.40938 33.565624 91.25313 33.58125Q91.09688 33.6125 90.84688 33.6125Q90.6125 33.6125 90.45625 33.58125Q90.3 33.565624 90.20625 33.534374Q90.1125 33.4875 90.08125 33.440624Q90.05 33.378124 90.05 33.3L90.05 24.51875Q90.05 24.440624 90.06563 24.39375Q90.09688 24.33125 90.19063 24.284374Q90.28438 24.2375 90.40938 24.221874Q90.55 24.20625 90.78438 24.20625Q90.9875 24.20625 91.12813 24.221874Q91.26875 24.2375 91.34688 24.284374Q91.425 24.33125 91.45625 24.39375Q91.50313 24.440624 91.50313 24.51875L91.50313 25.675Q92.2375 24.846874 92.97188 24.471874Q93.72188 24.08125 94.47188 24.08125Q95.34688 24.08125 95.94063 24.378124Q96.55 24.675 96.90938 25.175Q97.28438 25.675 97.44063 26.346874Q97.6125 27.003124 97.6125 27.940624L97.6125 33.3ZM109.22188 28.815624Q109.22188 29.89375 108.94063 30.8Q108.65938 31.690624 108.09688 32.346874Q107.53438 33.003124 106.69063 33.378124Q105.84688 33.7375 104.72188 33.7375Q103.64375 33.7375 102.83125 33.425Q102.03438 33.096874 101.4875 32.4875Q100.95625 31.8625 100.69063 30.9875Q100.425 30.096874 100.425 28.9875Q100.425 27.909374 100.70625 27.01875Q100.9875 26.1125 101.55 25.45625Q102.1125 24.8 102.94063 24.440624Q103.78438 24.08125 104.90938 24.08125Q106.00313 24.08125 106.8 24.409374Q107.6125 24.721874 108.14375 25.346874Q108.675 25.95625 108.94063 26.83125Q109.22188 27.70625 109.22188 28.815624ZM107.51875 28.925Q107.51875 28.20625 107.37813 27.58125Q107.25313 26.940624 106.94063 26.471874Q106.64375 25.9875 106.12813 25.70625Q105.6125 25.425 104.84688 25.425Q104.12813 25.425 103.6125 25.675Q103.1125 25.925 102.76875 26.39375Q102.44063 26.8625 102.26875 27.503124Q102.1125 28.128124 102.1125 28.878124Q102.1125 29.596874 102.2375 30.2375Q102.37813 30.878124 102.69063 31.346874Q103.00313 31.815624 103.51875 32.096874Q104.03438 32.378124 104.8 32.378124Q105.50313 32.378124 106.01875 32.128124Q106.55 31.8625 106.87813 31.409374Q107.20625 30.95625 107.3625 30.315624Q107.51875 29.675 107.51875 28.925ZM125.08125 33.3Q125.08125 33.378124 125.03438 33.440624Q125.00313 33.4875 124.90938 33.534374Q124.83125 33.565624 124.675 33.58125Q124.51875 33.6125 124.28438 33.6125Q124.03438 33.6125 123.87813 33.58125Q123.72188 33.565624 123.62813 33.534374Q123.53438 33.4875 123.4875 33.440624Q123.45625 33.378124 123.45625 33.3L123.45625 27.95625Q123.45625 27.409374 123.3625 26.95625Q123.26875 26.4875 123.05 26.159374Q122.83125 25.83125 122.50313 25.659374Q122.175 25.471874 121.72188 25.471874Q121.15938 25.471874 120.59688 25.909374Q120.05 26.33125 119.3625 27.159374L119.3625 33.3Q119.3625 33.378124 119.31563 33.440624Q119.28438 33.4875 119.19063 33.534374Q119.1125 33.565624 118.95625 33.58125Q118.8 33.6125 118.56563 33.6125Q118.33125 33.6125 118.175 33.58125Q118.01875 33.565624 117.925 33.534374Q117.83125 33.4875 117.78438 33.440624Q117.75313 33.378124 117.75313 33.3L117.75313 27.95625Q117.75313 27.409374 117.64375 26.95625Q117.55 26.4875 117.33125 26.159374Q117.1125 25.83125 116.78438 25.659374Q116.45625 25.471874 116.00313 25.471874Q115.45625 25.471874 114.87813 25.909374Q114.31563 26.33125 113.65938 27.159374L113.65938 33.3Q113.65938 33.378124 113.6125 33.440624Q113.58125 33.4875 113.4875 33.534374Q113.40938 33.565624 113.25313 33.58125Q113.09688 33.6125 112.84688 33.6125Q112.6125 33.6125 112.45625 33.58125Q112.3 33.565624 112.20625 33.534374Q112.1125 33.4875 112.08125 33.440624Q112.05 33.378124 112.05 33.3L112.05 24.51875Q112.05 24.440624 112.06563 24.39375Q112.09688 24.33125 112.19063 24.284374Q112.28438 24.2375 112.40938 24.221874Q112.55 24.20625 112.78438 24.20625Q112.9875 24.20625 113.12813 24.221874Q113.26875 24.2375 113.34688 24.284374Q113.425 24.33125 113.45625 24.39375Q113.50313 24.440624 113.50313 24.51875L113.50313 25.675Q114.2375 24.846874 114.94063 24.471874Q115.64375 24.08125 116.34688 24.08125Q116.89375 24.08125 117.33125 24.20625Q117.76875 24.33125 118.09688 24.565624Q118.425 24.784374 118.65938 25.1125Q118.89375 25.425 119.05 25.815624Q119.50313 25.33125 119.89375 25.003124Q120.28438 24.675 120.64375 24.471874Q121.01875 24.26875 121.3625 24.175Q121.70625 24.08125 122.06563 24.08125Q122.90938 24.08125 123.4875 24.378124Q124.06563 24.675 124.425 25.175Q124.78438 25.675 124.925 26.346874Q125.08125 27.003124 125.08125 27.753124L125.08125 33.3ZM136.12813 28.8Q136.12813 29.940624 135.87813 30.8625Q135.62813 31.76875 135.14375 32.409374Q134.65938 33.05 133.95625 33.39375Q133.25313 33.7375 132.34688 33.7375Q131.925 33.7375 131.56563 33.64375Q131.22188 33.565624 130.87813 33.378124Q130.53438 33.190624 130.19063 32.909374Q129.84688 32.628124 129.47188 32.2375L129.47188 33.3Q129.47188 33.378124 129.425 33.440624Q129.39375 33.503124 129.3 33.534374Q129.22188 33.565624 129.08125 33.58125Q128.95625 33.6125 128.75313 33.6125Q128.55 33.6125 128.40938 33.58125Q128.28438 33.565624 128.19063 33.534374Q128.09688 33.503124 128.06563 33.440624Q128.05 33.378124 128.05 33.3L128.05 20.253124Q128.05 20.175 128.08125 20.128124Q128.1125 20.065624 128.20625 20.034374Q128.3 19.9875 128.45625 19.971874Q128.6125 19.940624 128.84688 19.940624Q129.09688 19.940624 129.25313 19.971874Q129.40938 19.9875 129.4875 20.034374Q129.58125 20.065624 129.6125 20.128124Q129.65938 20.175 129.65938 20.253124L129.65938 25.51875Q130.05 25.128124 130.40938 24.8625Q130.78438 24.58125 131.12813 24.409374Q131.4875 24.2375 131.83125 24.159374Q132.19063 24.08125 132.58125 24.08125Q133.53438 24.08125 134.20625 24.45625Q134.89375 24.83125 135.31563 25.471874Q135.7375 26.1125 135.925 26.971874Q136.12813 27.83125 136.12813 28.8ZM134.425 28.971874Q134.425 28.3 134.31563 27.675Q134.22188 27.034374 133.97188 26.55Q133.72188 26.065624 133.3 25.76875Q132.87813 25.45625 132.25313 25.45625Q131.94063 25.45625 131.62813 25.55Q131.33125 25.64375 131.01875 25.846874Q130.70625 26.05 130.3625 26.378124Q130.03438 26.690624 129.65938 27.175L129.65938 30.690624Q130.31563 31.503124 130.925 31.925Q131.53438 32.346874 132.19063 32.346874Q132.78438 32.346874 133.20625 32.065624Q133.64375 31.76875 133.90938 31.284374Q134.19063 30.8 134.3 30.20625Q134.425 29.596874 134.425 28.971874ZM144.175 25.096874Q144.175 25.3 144.15938 25.45625Q144.15938 25.596874 144.12813 25.690624Q144.09688 25.76875 144.05 25.815624Q144.01875 25.846874 143.94063 25.846874Q143.8625 25.846874 143.7375 25.815624Q143.62813 25.76875 143.4875 25.721874Q143.34688 25.675 143.175 25.64375Q143.00313 25.596874 142.8 25.596874Q142.55 25.596874 142.31563 25.70625Q142.08125 25.8 141.81563 26.01875Q141.56563 26.2375 141.28438 26.6125Q141.00313 26.9875 140.65938 27.51875L140.65938 33.3Q140.65938 33.378124 140.6125 33.440624Q140.58125 33.4875 140.4875 33.534374Q140.40938 33.565624 140.25313 33.58125Q140.09688 33.6125 139.84688 33.6125Q139.6125 33.6125 139.45625 33.58125Q139.3 33.565624 139.20625 33.534374Q139.1125 33.4875 139.08125 33.440624Q139.05 33.378124 139.05 33.3L139.05 24.51875Q139.05 24.440624 139.06563 24.39375Q139.09688 24.33125 139.19063 24.284374Q139.28438 24.2375 139.40938 24.221874Q139.55 24.20625 139.78438 24.20625Q139.9875 24.20625 140.12813 24.221874Q140.26875 24.2375 140.34688 24.284374Q140.425 24.33125 140.45625 24.39375Q140.50313 24.440624 140.50313 24.51875L140.50313 25.8Q140.8625 25.26875 141.175 24.940624Q141.50313 24.596874 141.78438 24.409374Q142.06563 24.221874 142.33125 24.159374Q142.6125 24.08125 142.90938 24.08125Q143.03438 24.08125 143.19063 24.096874Q143.34688 24.1125 143.51875 24.159374Q143.70625 24.190624 143.84688 24.2375Q143.9875 24.284374 144.03438 24.33125Q144.09688 24.378124 144.1125 24.425Q144.14375 24.471874 144.15938 24.534374Q144.175 24.596874 144.175 24.7375Q144.175 24.8625 144.175 25.096874ZM153.55 28.534374Q153.55 28.909374 153.34688 29.08125Q153.15938 29.2375 152.925 29.2375L147.15938 29.2375Q147.15938 29.971874 147.3 30.565624Q147.45625 31.14375 147.78438 31.565624Q148.12813 31.971874 148.675 32.20625Q149.22188 32.425 150.01875 32.425Q150.64375 32.425 151.12813 32.33125Q151.62813 32.221874 151.97188 32.096874Q152.33125 31.971874 152.56563 31.878124Q152.8 31.76875 152.90938 31.76875Q152.97188 31.76875 153.01875 31.8Q153.08125 31.83125 153.1125 31.909374Q153.14375 31.971874 153.15938 32.096874Q153.175 32.20625 153.175 32.39375Q153.175 32.51875 153.15938 32.6125Q153.15938 32.70625 153.14375 32.784374Q153.12813 32.846874 153.08125 32.909374Q153.05 32.95625 153.00313 33.01875Q152.95625 33.065624 152.69063 33.190624Q152.425 33.315624 152.00313 33.440624Q151.58125 33.55 151.01875 33.64375Q150.47188 33.7375 149.84688 33.7375Q148.76875 33.7375 147.95625 33.440624Q147.14375 33.128124 146.58125 32.534374Q146.01875 31.940624 145.7375 31.05Q145.45625 30.14375 145.45625 28.95625Q145.45625 27.815624 145.75313 26.909374Q146.05 26.003124 146.59688 25.378124Q147.14375 24.753124 147.925 24.425Q148.70625 24.08125 149.675 24.08125Q150.70625 24.08125 151.44063 24.409374Q152.175 24.7375 152.64375 25.3Q153.1125 25.8625 153.33125 26.628124Q153.55 27.378124 153.55 28.2375L153.55 28.534374ZM151.925 28.05Q151.95625 26.784374 151.3625 26.065624Q150.76875 25.33125 149.6125 25.33125Q149.01875 25.33125 148.56563 25.565624Q148.1125 25.784374 147.8 26.159374Q147.50313 26.534374 147.33125 27.034374Q147.175 27.51875 147.15938 28.05L151.925 28.05ZM168.58125 33.3Q168.58125 33.378124 168.53438 33.440624Q168.50313 33.503124 168.425 33.534374Q168.34688 33.565624 168.20625 33.58125Q168.06563 33.6125 167.87813 33.6125Q167.65938 33.6125 167.51875 33.58125Q167.39375 33.565624 167.3 33.534374Q167.22188 33.503124 167.175 33.440624Q167.14375 33.378124 167.14375 33.3L167.14375 32.14375Q166.44063 32.89375 165.69063 33.315624Q164.95625 33.7375 164.06563 33.7375Q163.09688 33.7375 162.40938 33.3625Q161.72188 32.9875 161.3 32.346874Q160.87813 31.70625 160.675 30.846874Q160.4875 29.971874 160.4875 29.01875Q160.4875 27.878124 160.72188 26.971874Q160.97188 26.065624 161.45625 25.425Q161.94063 24.76875 162.64375 24.425Q163.34688 24.08125 164.28438 24.08125Q165.05 24.08125 165.69063 24.425Q166.33125 24.753124 166.95625 25.409374L166.95625 20.3Q166.95625 20.221874 166.9875 20.159374Q167.01875 20.096874 167.1125 20.065624Q167.22188 20.034374 167.3625 20.01875Q167.51875 19.9875 167.75313 19.9875Q168.00313 19.9875 168.15938 20.01875Q168.31563 20.034374 168.39375 20.065624Q168.4875 20.096874 168.53438 20.159374Q168.58125 20.221874 168.58125 20.3L168.58125 33.3ZM166.95625 27.128124Q166.3 26.315624 165.69063 25.89375Q165.08125 25.45625 164.40938 25.45625Q163.8 25.45625 163.3625 25.753124Q162.94063 26.05 162.675 26.534374Q162.40938 27.003124 162.28438 27.6125Q162.15938 28.221874 162.15938 28.846874Q162.15938 29.503124 162.25313 30.14375Q162.3625 30.76875 162.6125 31.26875Q162.87813 31.76875 163.28438 32.065624Q163.70625 32.3625 164.34688 32.3625Q164.675 32.3625 164.97188 32.26875Q165.26875 32.175 165.58125 31.971874Q165.89375 31.76875 166.22188 31.440624Q166.56563 31.1125 166.95625 30.64375L166.95625 27.128124ZM179.55 28.534374Q179.55 28.909374 179.34688 29.08125Q179.15938 29.2375 178.925 29.2375L173.15938 29.2375Q173.15938 29.971874 173.3 30.565624Q173.45625 31.14375 173.78438 31.565624Q174.12813 31.971874 174.675 32.20625Q175.22188 32.425 176.01875 32.425Q176.64375 32.425 177.12813 32.33125Q177.62813 32.221874 177.97188 32.096874Q178.33125 31.971874 178.56563 31.878124Q178.8 31.76875 178.90938 31.76875Q178.97188 31.76875 179.01875 31.8Q179.08125 31.83125 179.1125 31.909374Q179.14375 31.971874 179.15938 32.096874Q179.175 32.20625 179.175 32.39375Q179.175 32.51875 179.15938 32.6125Q179.15938 32.70625 179.14375 32.784374Q179.12813 32.846874 179.08125 32.909374Q179.05 32.95625 179.00313 33.01875Q178.95625 33.065624 178.69063 33.190624Q178.425 33.315624 178.00313 33.440624Q177.58125 33.55 177.01875 33.64375Q176.47188 33.7375 175.84688 33.7375Q174.76875 33.7375 173.95625 33.440624Q173.14375 33.128124 172.58125 32.534374Q172.01875 31.940624 171.7375 31.05Q171.45625 30.14375 171.45625 28.95625Q171.45625 27.815624 171.75313 26.909374Q172.05 26.003124 172.59688 25.378124Q173.14375 24.753124 173.925 24.425Q174.70625 24.08125 175.675 24.08125Q176.70625 24.08125 177.44063 24.409374Q178.175 24.7375 178.64375 25.3Q179.1125 25.8625 179.33125 26.628124Q179.55 27.378124 179.55 28.2375L179.55 28.534374ZM177.925 28.05Q177.95625 26.784374 177.3625 26.065624Q176.76875 25.33125 175.6125 25.33125Q175.01875 25.33125 174.56563 25.565624Q174.1125 25.784374 173.8 26.159374Q173.50313 26.534374 173.33125 27.034374Q173.175 27.51875 173.15938 28.05L177.925 28.05ZM193.3625 31.971874Q193.3625 32.128124 193.34688 32.253124Q193.34688 32.378124 193.31563 32.471874Q193.3 32.55 193.25313 32.6125Q193.22188 32.675 193.09688 32.8Q192.9875 32.909374 192.69063 33.096874Q192.39375 33.26875 192.01875 33.425Q191.65938 33.565624 191.22188 33.64375Q190.8 33.7375 190.34688 33.7375Q189.39375 33.7375 188.65938 33.425Q187.94063 33.1125 187.44063 32.51875Q186.94063 31.909374 186.675 31.034374Q186.425 30.159374 186.425 29.01875Q186.425 27.721874 186.7375 26.784374Q187.06563 25.846874 187.6125 25.253124Q188.175 24.659374 188.90938 24.378124Q189.65938 24.08125 190.53438 24.08125Q190.95625 24.08125 191.34688 24.159374Q191.7375 24.2375 192.06563 24.378124Q192.40938 24.503124 192.65938 24.675Q192.925 24.83125 193.03438 24.95625Q193.15938 25.065624 193.20625 25.14375Q193.25313 25.20625 193.26875 25.3Q193.3 25.378124 193.31563 25.503124Q193.33125 25.6125 193.33125 25.8Q193.33125 26.175 193.2375 26.33125Q193.14375 26.471874 193.01875 26.471874Q192.87813 26.471874 192.675 26.315624Q192.4875 26.159374 192.19063 25.971874Q191.90938 25.76875 191.4875 25.6125Q191.08125 25.440624 190.51875 25.440624Q189.34688 25.440624 188.72188 26.346874Q188.1125 27.2375 188.1125 28.925Q188.1125 29.784374 188.26875 30.425Q188.425 31.065624 188.7375 31.503124Q189.05 31.925 189.50313 32.128124Q189.97188 32.33125 190.55 32.33125Q191.1125 32.33125 191.51875 32.159374Q191.94063 31.9875 192.25313 31.784374Q192.56563 31.565624 192.76875 31.39375Q192.9875 31.221874 193.09688 31.221874Q193.175 31.221874 193.22188 31.26875Q193.26875 31.3 193.3 31.39375Q193.33125 31.4875 193.34688 31.628124Q193.3625 31.76875 193.3625 31.971874ZM199.05 33.55L197.87813 36.784374Q197.81563 36.940624 197.58125 37.01875Q197.34688 37.1125 196.84688 37.1125Q196.59688 37.1125 196.44063 37.08125Q196.28438 37.05 196.19063 36.9875Q196.1125 36.940624 196.09688 36.83125Q196.09688 36.7375 196.15938 36.6125L197.3625 33.55Q197.28438 33.503124 197.20625 33.425Q197.12813 33.33125 197.09688 33.2375L193.95625 24.83125Q193.87813 24.628124 193.87813 24.51875Q193.87813 24.39375 193.95625 24.33125Q194.03438 24.26875 194.20625 24.2375Q194.39375 24.20625 194.69063 24.20625Q194.97188 24.20625 195.14375 24.221874Q195.31563 24.2375 195.40938 24.284374Q195.50313 24.315624 195.55 24.39375Q195.59688 24.471874 195.64375 24.596874L198.14375 31.64375L198.175 31.64375L200.59688 24.55Q200.65938 24.3625 200.7375 24.315624Q200.83125 24.26875 200.9875 24.2375Q201.15938 24.20625 201.47188 24.20625Q201.7375 24.20625 201.90938 24.2375Q202.09688 24.26875 202.175 24.33125Q202.26875 24.39375 202.26875 24.51875Q202.26875 24.628124 202.20625 24.815624L199.05 33.55ZM210.3625 31.971874Q210.3625 32.128124 210.34688 32.253124Q210.34688 32.378124 210.31563 32.471874Q210.3 32.55 210.25313 32.6125Q210.22188 32.675 210.09688 32.8Q209.9875 32.909374 209.69063 33.096874Q209.39375 33.26875 209.01875 33.425Q208.65938 33.565624 208.22188 33.64375Q207.8 33.7375 207.34688 33.7375Q206.39375 33.7375 205.65938 33.425Q204.94063 33.1125 204.44063 32.51875Q203.94063 31.909374 203.675 31.034374Q203.425 30.159374 203.425 29.01875Q203.425 27.721874 203.7375 26.784374Q204.06563 25.846874 204.6125 25.253124Q205.175 24.659374 205.90938 24.378124Q206.65938 24.08125 207.53438 24.08125Q207.95625 24.08125 208.34688 24.159374Q208.7375 24.2375 209.06563 24.378124Q209.40938 24.503124 209.65938 24.675Q209.925 24.83125 210.03438 24.95625Q210.15938 25.065624 210.20625 25.14375Q210.25313 25.20625 210.26875 25.3Q210.3 25.378124 210.31563 25.503124Q210.33125 25.6125 210.33125 25.8Q210.33125 26.175 210.2375 26.33125Q210.14375 26.471874 210.01875 26.471874Q209.87813 26.471874 209.675 26.315624Q209.4875 26.159374 209.19063 25.971874Q208.90938 25.76875 208.4875 25.6125Q208.08125 25.440624 207.51875 25.440624Q206.34688 25.440624 205.72188 26.346874Q205.1125 27.2375 205.1125 28.925Q205.1125 29.784374 205.26875 30.425Q205.425 31.065624 205.7375 31.503124Q206.05 31.925 206.50313 32.128124Q206.97188 32.33125 207.55 32.33125Q208.1125 32.33125 208.51875 32.159374Q208.94063 31.9875 209.25313 31.784374Q209.56563 31.565624 209.76875 31.39375Q209.9875 31.221874 210.09688 31.221874Q210.175 31.221874 210.22188 31.26875Q210.26875 31.3 210.3 31.39375Q210.33125 31.4875 210.34688 31.628124Q210.3625 31.76875 210.3625 31.971874ZM213.65938 33.3Q213.65938 33.378124 213.6125 33.440624Q213.58125 33.4875 213.4875 33.534374Q213.40938 33.565624 213.25313 33.58125Q213.09688 33.6125 212.84688 33.6125Q212.6125 33.6125 212.45625 33.58125Q212.3 33.565624 212.20625 33.534374Q212.1125 33.4875 212.08125 33.440624Q212.05 33.378124 212.05 33.3L212.05 20.253124Q212.05 20.175 212.08125 20.128124Q212.1125 20.065624 212.20625 20.034374Q212.3 19.9875 212.45625 19.971874Q212.6125 19.940624 212.84688 19.940624Q213.09688 19.940624 213.25313 19.971874Q213.40938 19.9875 213.4875 20.034374Q213.58125 20.065624 213.6125 20.128124Q213.65938 20.175 213.65938 20.253124L213.65938 33.3ZM224.55 28.534374Q224.55 28.909374 224.34688 29.08125Q224.15938 29.2375 223.925 29.2375L218.15938 29.2375Q218.15938 29.971874 218.3 30.565624Q218.45625 31.14375 218.78438 31.565624Q219.12813 31.971874 219.675 32.20625Q220.22188 32.425 221.01875 32.425Q221.64375 32.425 222.12813 32.33125Q222.62813 32.221874 222.97188 32.096874Q223.33125 31.971874 223.56563 31.878124Q223.8 31.76875 223.90938 31.76875Q223.97188 31.76875 224.01875 31.8Q224.08125 31.83125 224.1125 31.909374Q224.14375 31.971874 224.15938 32.096874Q224.175 32.20625 224.175 32.39375Q224.175 32.51875 224.15938 32.6125Q224.15938 32.70625 224.14375 32.784374Q224.12813 32.846874 224.08125 32.909374Q224.05 32.95625 224.00313 33.01875Q223.95625 33.065624 223.69063 33.190624Q223.425 33.315624 223.00313 33.440624Q222.58125 33.55 222.01875 33.64375Q221.47188 33.7375 220.84688 33.7375Q219.76875 33.7375 218.95625 33.440624Q218.14375 33.128124 217.58125 32.534374Q217.01875 31.940624 216.7375 31.05Q216.45625 30.14375 216.45625 28.95625Q216.45625 27.815624 216.75313 26.909374Q217.05 26.003124 217.59688 25.378124Q218.14375 24.753124 218.925 24.425Q219.70625 24.08125 220.675 24.08125Q221.70625 24.08125 222.44063 24.409374Q223.175 24.7375 223.64375 25.3Q224.1125 25.8625 224.33125 26.628124Q224.55 27.378124 224.55 28.2375L224.55 28.534374ZM222.925 28.05Q222.95625 26.784374 222.3625 26.065624Q221.76875 25.33125 220.6125 25.33125Q220.01875 25.33125 219.56563 25.565624Q219.1125 25.784374 218.8 26.159374Q218.50313 26.534374 218.33125 27.034374Q218.175 27.51875 218.15938 28.05L222.925 28.05ZM232.56563 30.909374Q232.56563 31.58125 232.31563 32.1125Q232.06563 32.64375 231.59688 33.003124Q231.14375 33.3625 230.50313 33.55Q229.87813 33.7375 229.1125 33.7375Q228.64375 33.7375 228.22188 33.659374Q227.8 33.596874 227.45625 33.4875Q227.12813 33.3625 226.89375 33.2375Q226.65938 33.1125 226.55 33.01875Q226.44063 32.925 226.39375 32.753124Q226.34688 32.565624 226.34688 32.26875Q226.34688 32.08125 226.3625 31.95625Q226.37813 31.83125 226.40938 31.753124Q226.44063 31.675 226.4875 31.64375Q226.55 31.6125 226.6125 31.6125Q226.72188 31.6125 226.925 31.7375Q227.14375 31.8625 227.44063 32.01875Q227.75313 32.175 228.175 32.315624Q228.59688 32.440624 229.14375 32.440624Q229.55 32.440624 229.87813 32.3625Q230.22188 32.26875 230.45625 32.096874Q230.70625 31.925 230.83125 31.659374Q230.97188 31.39375 230.97188 31.034374Q230.97188 30.675 230.78438 30.425Q230.59688 30.159374 230.28438 29.971874Q229.97188 29.76875 229.58125 29.628124Q229.19063 29.471874 228.76875 29.3Q228.34688 29.128124 227.95625 28.925Q227.56563 28.721874 227.25313 28.425Q226.94063 28.1125 226.7375 27.690624Q226.55 27.26875 226.55 26.690624Q226.55 26.159374 226.75313 25.690624Q226.95625 25.221874 227.34688 24.8625Q227.75313 24.503124 228.34688 24.3Q228.95625 24.08125 229.75313 24.08125Q230.1125 24.08125 230.45625 24.14375Q230.81563 24.190624 231.09688 24.284374Q231.37813 24.3625 231.58125 24.471874Q231.78438 24.58125 231.87813 24.659374Q231.9875 24.7375 232.01875 24.8Q232.05 24.846874 232.06563 24.925Q232.08125 24.9875 232.09688 25.096874Q232.1125 25.20625 232.1125 25.3625Q232.1125 25.534374 232.09688 25.659374Q232.08125 25.76875 232.05 25.846874Q232.01875 25.925 231.97188 25.971874Q231.925 26.003124 231.8625 26.003124Q231.76875 26.003124 231.59688 25.89375Q231.44063 25.784374 231.175 25.659374Q230.90938 25.534374 230.55 25.440624Q230.20625 25.33125 229.7375 25.33125Q229.33125 25.33125 229.01875 25.425Q228.70625 25.51875 228.50313 25.690624Q228.3 25.846874 228.19063 26.08125Q228.09688 26.315624 228.09688 26.596874Q228.09688 26.971874 228.28438 27.2375Q228.4875 27.4875 228.8 27.690624Q229.1125 27.878124 229.50313 28.034374Q229.90938 28.190624 230.33125 28.3625Q230.75313 28.534374 231.14375 28.7375Q231.55 28.940624 231.8625 29.2375Q232.175 29.51875 232.3625 29.940624Q232.56563 30.346874 232.56563 30.909374Z" fill-rule="nonzero"/></svg>